<svg xmlns="http://www.w3.org/2000/svg" viewBox="0 0 64.63 67.38"><defs><style>.cls-1{fill:#eb008b;}</style></defs><g id="Capa_2" data-name="Capa 2"><g id="Capa_1-2" data-name="Capa 1"><path class="cls-1" d="M32.31,67.38H2.08C.44,67.38,0,66.94,0,65.28Q0,45.86,0,26.45a2.2,2.2,0,0,1,.91-1.91c2.43-1.9,4.84-3.85,7.27-5.75a1.43,1.43,0,0,0,.63-1.29c0-3.12,0-6.24,0-9.36,0-1.59.47-2.07,2-2.07,4.18,0,8.36,0,12.54,0a2.65,2.65,0,0,0,1.45-.53C26.91,3.92,29,2.26,31,.62c1.05-.83,1.54-.83,2.59,0,2,1.62,4.08,3.23,6.1,4.88a2.37,2.37,0,0,0,1.63.58c4.15,0,8.3,0,12.46,0,1.56,0,2,.48,2,2.07,0,3.15,0,6.3,0,9.44a1.7,1.7,0,0,0,.55,1.13c2.41,2,4.86,3.91,7.32,5.83a2.22,2.22,0,0,1,.91,1.91q0,19.41,0,38.82c0,1.7-.42,2.11-2.15,2.11ZM11.85,9.16c0,7.62,0,15.15,0,22.68a1,1,0,0,0,.37.69c4.63,3.7,9.27,7.37,13.9,11.06a.69.69,0,0,0,1,0c1.28-1.06,2.59-2.08,3.89-3.11a1.64,1.64,0,0,1,2.52,0c1.26,1,2.53,2,3.75,3,.51.44.84.42,1.37,0q6.69-5.37,13.44-10.66a1.54,1.54,0,0,0,.67-1.36c0-7.13,0-14.26,0-21.38,0-.28,0-.56,0-.88ZM58.64,64.31c-.25-.23-.37-.35-.5-.45q-12.6-10-25.2-20c-.53-.42-.83-.33-1.3,0q-12.55,10-25.13,20a5.62,5.62,0,0,0-.5.46Zm2.88-1.64V29.2L40.44,45.91Zm-58.42,0L24.19,45.91,3.1,29.2ZM35.25,6.07l.07-.18c-.9-.73-1.81-1.46-2.73-2.17a.6.6,0,0,0-.52,0c-.94.72-1.86,1.46-2.9,2.29a4.1,4.1,0,0,0,.51.08ZM8.74,29.78V27.57H6Zm49.94-2.22H55.89v2.21ZM8.77,22.2,6,24.42h2.8Zm49.92,2.24-2.82-2.21v2.21Z"/><path class="cls-1" d="M34.65,19c.71-.77,1.6-.49,2.42-.37.18,0,.42.65.4,1-.11,1.83-.31,3.65-.43,5.48a13.84,13.84,0,0,0,0,2.73c.15,1,1,1.42,1.75.78a4.81,4.81,0,0,0,1.56-2.15C41.83,21.64,39.51,16.15,33,16a8.38,8.38,0,0,0-8.41,5.19c-1.54,3.62-.81,8.07,1.8,10.53a8.69,8.69,0,0,0,7.18,2.11A28.3,28.3,0,0,0,37.51,33c.8-.19,1.11,0,1.17.81.09,1.53,0,1.73-1.48,2.11a16.25,16.25,0,0,1-8.39.18,10,10,0,0,1-7.18-6.42,12.42,12.42,0,0,1,3.5-13.82c5.09-4.33,14-3,17.29,2.58,2.14,3.62,1.67,9-1,11.61a5,5,0,0,1-4.48,1.44,3.07,3.07,0,0,1-2.4-1.82,4.17,4.17,0,0,1-2.8,1.83A4.42,4.42,0,0,1,26.48,28a8.62,8.62,0,0,1,1.45-7.5A5.16,5.16,0,0,1,34.65,19Zm-.22,4.79-.18,0c0-.2,0-.4,0-.6,0-.85-.16-1.68-1.11-2a2.34,2.34,0,0,0-2.63.77,6,6,0,0,0-1.05,5.59,1.86,1.86,0,0,0,3,.94,2.88,2.88,0,0,0,1-1.18C33.84,26.12,34.11,25,34.43,23.81Z"/></g></g></svg>