<?xml version="1.0" encoding="utf-8"?>
<!-- Generator: Adobe Illustrator 24.3.0, SVG Export Plug-In . SVG Version: 6.00 Build 0)  -->
<svg version="1.1" id="Capa_1" xmlns="http://www.w3.org/2000/svg" xmlns:xlink="http://www.w3.org/1999/xlink" x="0px" y="0px"
	 viewBox="0 0 149.1 105.8" style="enable-background:new 0 0 149.1 105.8;" xml:space="preserve">
<style type="text/css">
	.st0{fill:none;stroke:#FFDA00;stroke-width:3;stroke-miterlimit:10;}
	.st1{fill:#FFDA00;}
</style>
<g id="Capa_1-2">
	<polygon class="st0" points="25.4,88 7.7,34 68.1,89.6 137.9,52.8 110.6,100.3 109.9,36.2 89.5,96.8 76.1,18.5 46.5,90.6 
		40.8,24.7 	"/>
	<path class="st1" d="M117.7,19.9c-0.2,2.3-2.2,4.1-4.5,3.9c0,0-0.1,0-0.1,0c-2.4-0.4-4-2.7-3.6-5.1c0.2-2.3,2.2-4.1,4.5-3.9
		c0,0,0.1,0,0.1,0C116.4,15.3,118,17.5,117.7,19.9"/>
	<path class="st1" d="M149,46c-0.2,2.3-2.2,4.1-4.5,3.9c0,0-0.1,0-0.1,0c-2.4-0.4-4-2.7-3.6-5.1c0.2-2.3,2.3-4,4.6-3.8
		c0,0,0.1,0,0.1,0C147.7,41.4,149.3,43.6,149,46"/>
	<path class="st1" d="M82,5.1c-0.2,2.3-2.2,4.1-4.5,3.9c0,0-0.1,0-0.1,0c-2.4-0.4-4-2.7-3.6-5.1c0.1-2.3,2.1-4.1,4.5-4
		c0.1,0,0.1,0,0.2,0C80.8,0.5,82.4,2.7,82,5.1"/>
	<path class="st1" d="M8.3,25.5c-0.2,2.3-2.2,4.1-4.5,3.9c-0.1,0-0.1,0-0.2,0c-2.4-0.4-4-2.7-3.7-5.1c0.2-2.3,2.2-4.1,4.5-3.9
		c0,0,0.1,0,0.1,0C7.1,20.9,8.7,23.1,8.3,25.5"/>
	<path class="st1" d="M45.3,9.1c-0.2,2.3-2.2,4.1-4.5,3.9c-0.1,0-0.1,0-0.2,0c-2.4-0.5-4-2.7-3.6-5.1c0.2-2.3,2.2-4.1,4.5-3.9
		c0.1,0,0.1,0,0.2,0C44.1,4.5,45.7,6.7,45.3,9.1"/>
</g>
</svg>
