<svg xmlns="http://www.w3.org/2000/svg" viewBox="0 0 149.05 105.78"><defs><style>.cls-1{fill:none;stroke:#c80186;stroke-miterlimit:10;stroke-width:3px;}.cls-2{fill:#c80186;}</style></defs><title>Recurso 2</title><g id="Capa_2" data-name="Capa 2"><g id="Capa_1-2" data-name="Capa 1"><polygon class="cls-1" points="25.36 87.96 7.72 33.95 68.14 89.59 137.93 52.75 110.56 100.26 109.93 36.22 89.48 96.84 76.08 18.46 46.53 90.64 40.84 24.73 25.36 87.96"/><path class="cls-2" d="M117.68,19.94A4.22,4.22,0,0,1,113,23.8a4.5,4.5,0,0,1-3.63-5.06,4.22,4.22,0,0,1,4.68-3.87,4.5,4.5,0,0,1,3.63,5.07"/><path class="cls-2" d="M149,46a4.21,4.21,0,0,1-4.67,3.86,4.5,4.5,0,0,1-3.64-5.06A4.22,4.22,0,0,1,145.38,41,4.5,4.5,0,0,1,149,46"/><path class="cls-2" d="M82,5.11A4.22,4.22,0,0,1,77.36,9a4.5,4.5,0,0,1-3.63-5.06A4.22,4.22,0,0,1,78.41,0,4.5,4.5,0,0,1,82,5.11"/><path class="cls-2" d="M8.34,25.52a4.21,4.21,0,0,1-4.67,3.87A4.51,4.51,0,0,1,0,24.32a4.22,4.22,0,0,1,4.68-3.86,4.5,4.5,0,0,1,3.63,5.06"/><path class="cls-2" d="M45.28,9.12A4.21,4.21,0,0,1,40.61,13,4.5,4.5,0,0,1,37,7.92a4.21,4.21,0,0,1,4.68-3.86,4.5,4.5,0,0,1,3.63,5.06"/></g></g></svg>