<svg id="Capa_1" data-name="Capa 1" xmlns="http://www.w3.org/2000/svg" viewBox="0 0 149.08 105.8"><defs><style>.cls-1{fill:none;stroke:#00adee;stroke-miterlimit:10;stroke-width:3px;}.cls-2{fill:#00adee;}</style></defs><title>coronaCeleste</title><g id="Capa_1-2" data-name="Capa 1-2"><polygon class="cls-1" points="25.41 87.99 7.76 33.98 68.19 89.62 137.97 52.78 110.61 100.29 109.97 36.25 89.53 96.87 76.13 18.49 46.58 90.67 40.88 24.76 25.41 87.99"/><path class="cls-2" d="M117.68,19.94a4.21,4.21,0,0,1-4.54,3.87H113a4.5,4.5,0,0,1-3.63-5.06,4.22,4.22,0,0,1,4.53-3.88h.15a4.5,4.5,0,0,1,3.63,5.07" transform="translate(0.04 0.03)"/><path class="cls-2" d="M149,46a4.2,4.2,0,0,1-4.52,3.87h-.15a4.51,4.51,0,0,1-3.64-5.06A4.22,4.22,0,0,1,145.28,41h.1A4.5,4.5,0,0,1,149,46" transform="translate(0.04 0.03)"/><path class="cls-2" d="M82,5.11A4.22,4.22,0,0,1,77.48,9h-.12a4.5,4.5,0,0,1-3.63-5.06A4.22,4.22,0,0,1,78.2,0l.21,0A4.5,4.5,0,0,1,82,5.11" transform="translate(0.04 0.03)"/><path class="cls-2" d="M8.34,25.52A4.2,4.2,0,0,1,3.83,29.4H3.67A4.51,4.51,0,0,1,0,24.32a4.21,4.21,0,0,1,4.54-3.87h.14a4.5,4.5,0,0,1,3.63,5.06" transform="translate(0.04 0.03)"/><path class="cls-2" d="M45.28,9.12a4.22,4.22,0,0,1-4.5,3.9l-.17,0A4.5,4.5,0,0,1,37,7.92,4.22,4.22,0,0,1,41.52,4l.16,0a4.5,4.5,0,0,1,3.63,5.06" transform="translate(0.04 0.03)"/></g></svg>