<svg id="Capa_1" data-name="Capa 1" xmlns="http://www.w3.org/2000/svg" xmlns:xlink="http://www.w3.org/1999/xlink" viewBox="0 0 299.48 1373.92"><defs><style>.cls-1{fill:none;}.cls-2{clip-path:url(#clip-path);}.cls-3{fill:#c80186;}.cls-4{fill:#f4d833;}</style><clipPath id="clip-path" transform="translate(57.83 -139.32)"><rect id="SVGID" class="cls-1" x="7.27" width="227" height="1553"/></clipPath></defs><title>footer</title><g class="cls-2"><path class="cls-3" d="M4.7,658.65c7.08-5.88,13.43-12.71,21-18C48.56,624.5,81.3,616.33,101,597.23,78.86,614,37.94,618,9,622.87l-4.26.7Z" transform="translate(57.83 -139.32)"/><path class="cls-3" d="M4.7,808c5.76-3,11.43-6.17,16.94-9.51,13.23-8,32.25-18.14,39.72-31.26A425.46,425.46,0,0,1,4.7,780.93Z" transform="translate(57.83 -139.32)"/><path class="cls-3" d="M4.7,981c35.06-1.86,71-.84,105.57-3-33-8.81-69.25-6.91-103-13.14l-2.6-.45Z" transform="translate(57.83 -139.32)"/><path class="cls-3" d="M96.78,1476.15c-28.89-2-57.6-.8-86.2-1.8-1.34,0-2.7-.14-4-.26C4.85,1486.59,2.36,1499,0,1511.47c.7.18,1.39.36,2.1.5,20.55,4.18,38.63-3,57.78-6.16,20.51-3.34,40.69-3.63,61.67-4.59,10.76-.49,21.5-1.48,32.38-.77,10.37.68,21.23,5.18,31.36,5.17C160.15,1483.55,124.93,1478.08,96.78,1476.15Z" transform="translate(57.83 -139.32)"/><path class="cls-3" d="M86.06,1051.41c-26.1,1-53.85-1.09-81.36-4.55v61.59c12.24.62,24.5,1.18,36.85,1.84,19.38,1,35.5,3.5,53.35-2.48,20.55-6.88,41.15-12,62.21-17.45,20.24-5.27,33.88-16.8,51.78-26.24,9.1-4.81,28.93-6.46,32.76-16C198.34,1072,135.7,1049.57,86.06,1051.41Z" transform="translate(57.83 -139.32)"/><path class="cls-3" d="M21.63,1172.54a171.34,171.34,0,0,1-16.93-8.08v49.68a4.54,4.54,0,0,1-2.42,4.2c21.43-2.46,42.27-7.56,63.91-9,25.5-1.69,53.56-9.46,74.56-21.84-16.83-5.41-40.1-2.51-57.4-4.36C60.93,1180.74,44.45,1181.78,21.63,1172.54Z" transform="translate(57.83 -139.32)"/><path class="cls-4" d="M4.7,162.6c30-4.64,60.63-6.66,88.83-16.86-24.83-.57-50.36-5.28-74.7-5.21A81.19,81.19,0,0,1,4.7,139.32Z" transform="translate(57.83 -139.32)"/><path class="cls-4" d="M4.7,427.18c27.54-9.27,54.07-15,87.49-6.26,44.2,11.57,89.37,17.71,132.05,37.71-55-40.28-118.15-70.15-180.34-80.32A268.8,268.8,0,0,0,4.7,375Z" transform="translate(57.83 -139.32)"/><path class="cls-4" d="M91.05,551.48c-23.7-2.61-47.19-8.93-70.88-10.35-5.06-.3-10.24-.65-15.47-1.07v55.71c5.66-4.49,11.45-8.84,17.55-12.85,16.93-11.13,37.49-11.31,56.82-16.09,18.37-4.55,38.33-7.11,56.12-12.35C123,549.33,104.19,552.93,91.05,551.48Z" transform="translate(57.83 -139.32)"/></g><path class="cls-4" d="M41.07,496.86c11.9,3.42,59,21.76,54.83-2.36-4.25-24.83-46-12-58.91-9.32-12.34,2.54-24.06,5.09-37,5.05,5.12.13,11.1,2,16.39,3.07,8.3,1.63,16.42,1.18,24.73,3.56" transform="translate(57.83 -139.32)"/><path class="cls-3" d="M-57.42,1421.56l.66.52c-.14-1.08-.25-2.16-.37-3.24l-.7.54C-57.69,1420.11-57.56,1420.83-57.42,1421.56Z" transform="translate(57.83 -139.32)"/><path class="cls-3" d="M91.29,1392.89c-9.31.61-18.38,2.94-27.15,5-3.88.94-7.65,2.89-11.7,3.32-10,1.06-18.64-1.78-27.88,1.82-8.13,3.16-16.81,2.87-25.65,3.63v27.42c.4.84.76,1.69,1.12,2.55a190.43,190.43,0,0,1,18.67-5c19.64-4.1,40-5.42,59.06-11.15,10.77-3.23,22.21-5.55,33.3-8,16.84-3.8,34.16-9.15,50.94-11.13C139.49,1404,114.29,1391.38,91.29,1392.89Z" transform="translate(57.83 -139.32)"/></svg>