<svg id="Capa_1" data-name="Capa 1" xmlns="http://www.w3.org/2000/svg" viewBox="0 0 585.06 1772.06"><defs><style>.cls-1{fill:#f4d833;}</style></defs><title>fuego-deforme</title><path class="cls-1" d="M387,565.41c64.94,24.94,131.39-31.95,198-35.67V489.82c-38.92,16.65-78.41,23.49-119,20.85-50.53-3.29-97.57-14.82-149.86-7.9-61.86,8.18-125.26,35.82-180.91,74,42.84-18.49,87.73-23.21,131.83-33.32C313.88,532.75,346.36,549.79,387,565.41Z"/><path class="cls-1" d="M585.06,709.06c-20,3-39.92,6.61-59.95,11.52-31.72,7.78-54.83,11.07-83.84-1.43-19.54-8.42-52.13-9.72-66.26-26.26,68.54,28.48,155.21-14.85,210-77.46V533.17c-49.21,42.28-93.85,97-153.48,117.5-31,10.66-65.91,13.05-96.81,14-23.49.69-46.93,6.23-70.46,8.09-13.05,1-31.54-3.09-43.77,1.63,17.44,5.73,37.12,8.87,55.16,13.93,19,5.32,39.33,6.12,55.74,17.64,29.91,21,51.86,50.48,87.74,62.05C467.43,783.52,523.34,758,573,744.88q6-1.61,12-3.32Z"/><path class="cls-1" d="M585.06,263c-1.77.75-3.54,1.5-5.3,2.27C529.89,287,497.28,270.61,456,257.41c-67.35-21.53-143.5,67.11-214.93,80.52C298,274.27,350.4,192.73,416.43,155.18c33.39-19,70.15-28,102.6-34.41,21.87-4.31,44-13.53,66-20V80.67c-.72-.12-1.44-.24-2.15-.38C563.46,76.66,542.21,79.09,526,67c-29.58-22-50.11-56.19-86.74-65C390-9.79,329.27,32.52,276.11,57.9,213.4,87.84,151.43,129.08,89.48,163.25c31.23-3.8,68.24-23.17,100.57-33.95,44.84-15,89.1-27.74,134.24-48.26,33.88-15.4,58.37-23.56,87.72-12.39,19.76,7.52,53.8,3.67,67.23,22.55-71-25.57-168,48.63-230.65,141.38-17.29,25.61-33.22,53.33-51.05,78.33-20.64,29-44.89,55.39-68,79.81-26.6,28.09-55.44,48.32-81.85,76.89-8.36,9-17,18.26-26,25.23C15,497.94,3.94,500.7,0,509.34c24.45,17.87,59.7-.68,90.39-15.39,37.74-18.1,71.55-40.31,107.58-71.65,57.15-49.69,113.57-76.26,170.6-81,52.67-4.35,101,2.51,156.36-15.28a373.73,373.73,0,0,0,60.13-25.75Z"/><path class="cls-1" d="M523.41,1158.8c-15.84-5-31.73-10-47.36-14.28"/><path class="cls-1" d="M393.16,850.66c23.76-1,44.15-1.18,67,1.92,27.82,3.76,58.59-7.14,83.73,4.43,12.9,5.94,26.85,9.14,41.13,11.31v-57c-22.54.21-45,5-67.87,7.3A678.58,678.58,0,0,0,446.12,829c-32.39,6.72-66.44,15.18-98.08,21.47C362.29,853,378.24,851.31,393.16,850.66Z"/><path class="cls-1" d="M585.06,905.37c-6.39-.72-12.67-1.45-18.76-2-24.29-2.19-47.93,7.19-72.39,15.8-57.14,20.12-109.93,59.66-166.5,82.59,12.52,4,34.9-7.35,48.27-10.25,17.19-3.72,34.42-7.31,51.56-11.76a728.17,728.17,0,0,0,81.54-26.56c22.37-8.73,36.25-10.71,57.33-3.34,6.41,2.24,12.71,4.87,18.95,7.66Z"/><path class="cls-1" d="M422.11,1501.75c17.36,13.11,34,27.06,50.55,41.55,27.5,24,54.73,43.82,85.21,61.16,9,5.09,18,9.82,27.19,14.38v-54.66c-1.35-.69-2.7-1.39-4-2-30.57-14.93-60.57-30.5-91.33-45.27-15.12-7.27-30.29-14.53-45.3-21.07-18.24-8-37.09-11.7-55.23-20.22C395.44,1487.07,412.28,1494.32,422.11,1501.75Z"/><path class="cls-1" d="M518,1641c19,15.88,36.49,33.4,54.87,50.21q6,5.49,12.18,11v-62.45c-39.9-13.84-80.12-28.83-119.48-44.87C480.38,1612.24,500.58,1626.41,518,1641Z"/><path class="cls-1" d="M585.06,1725.48q-3.1-1.43-6.18-2.87c-18.22-8.53-35.06-20.69-54-25.89a207.31,207.31,0,0,0-58.69-7.08c-31.68.44-57.54,9.14-85.84,21.12-28.92,12.24-52.95,7-84.29,4.25,2,.18,12.61,11.56,16.36,13.24,7.11,3.18,14.71,4,22,4.67,15.65,1.55,29.8,1.48,45.26,8.39,22.23,9.94,52.45,21.57,74.58,15.9,26.53-6.81,51.55-2.4,79.67,4.49,17,4.16,34.07,7.17,51.11,10.36Z"/><path class="cls-1" d="M415.57,427.33c28.34-1.73,110.65,20.32,119.25-13.12,6.47-25.14-17.73-13.63-31.19-11.44-25,4.06-51.91,1.74-76.92,6-21.49,3.67-43.48,5.91-64.4,10.91-16.41,3.92-32,10.66-48.67,13.77,32.82-4.66,68.14-4.07,101.93-6.13"/><path class="cls-1" d="M388.85,1195.78c-27.45-7.23-98.73-53.93-117.36-24.86-14,21.85,12.58,18.49,26.05,20.63,25,4,49.85,14.59,74.94,18.36,21.55,3.24,43.14,8,64.57,9.79,16.81,1.41,33.7-.11,50.54,2.16-32.64-5.85-66-17.47-98.74-26.08"/><path class="cls-1" d="M409.77,905.48c-12.25-.57-61.77-7.51-52.29,14.79,9.75,23,47.09,1,58.88-4.46,11.31-5.26,22-10.39,34.54-13.31-5,1-11.16.57-16.49.78-8.37.32-16.1,2.61-24.64,2.2"/><path class="cls-1" d="M151.51,604.38c-11,26.72,46.14,18.38,56,17.91,21.14-1,39.73-3.73,60.44-7,18.88-3,42.78-1.49,59.58-8.18-23-6.14-44.25-13.87-67.54-16.67s-42.46-1.41-64.67.88c-10.74,1.11-39,1.41-43.78,13.06"/><path class="cls-1" d="M454.51,1134.42c18.86,10.4,37.1,21.74,55.38,33.61a517.9,517.9,0,0,0,75.17,40.9v-48.79c-20.67-6.89-41.31-13.84-62.2-20.43-15.84-5-31.74-10-47.37-14.27-19-5.22-38-6.24-57-12C426.31,1123.79,443.83,1128.52,454.51,1134.42Z"/><path class="cls-1" d="M585.06,1268.35v-31.57c-25-5.35-50.07-11.1-74.85-17.28,17,15,38.75,26,57.88,37.86C573.83,1260.9,579.47,1264.59,585.06,1268.35Z"/><path class="cls-1" d="M585.06,1311.38c-.78-.13-1.56-.25-2.34-.35a205.24,205.24,0,0,0-58.51,1.32c-31,4.89-55.11,17.05-81.16,32.78-26.62,16.07-50.9,14.36-82,16,2-.1,14,9.55,17.9,10.67,7.41,2.11,15,1.8,22.19,1.48,15.55-.67,29.41-2.74,45.53,1.86,23.19,6.62,54.45,13.76,75.34,5.08,20.36-8.46,40.79-9.51,63.06-8.1Z"/></svg>