<svg id="Capa_1" data-name="Capa 1" xmlns="http://www.w3.org/2000/svg" xmlns:xlink="http://www.w3.org/1999/xlink" viewBox="0 0 436.55 961.92"><defs><style>.cls-1{fill:none;}.cls-2{clip-path:url(#clip-path);}.cls-3{fill:#ff0;}</style><clipPath id="clip-path" transform="translate(-0.03)"><rect class="cls-1" x="-32.23" y="-86.7" width="470" height="1208"/></clipPath></defs><title>fuego</title><g id="Capa_1-2" data-name="Capa 1-2"><g class="cls-2"><path class="cls-3" d="M365.77,740.3a289,289,0,0,0,70.77,27.33V704.09c-33.86-11.89-67.44-27.77-100.94-39.2,30.74-11.16,66.41-9.59,100.94-10.41V606c-47.6,20.63-99.3,25.94-156.39,15.62a362.19,362.19,0,0,0-107.09-3.85c-29.26,3.19-63.23,5.61-79.85,30.3,5.27,4.65,15.28,1.57,22,2.34,9.2,1,18.59,3.94,27.69,6.84,28.77,9.16,57.7,11,86.52,19.68,25.06,7.58,51.52,16.14,75.5,28.26C325.66,715.7,345.38,729.08,365.77,740.3Z" transform="translate(-0.03)"/><path class="cls-3" d="M436.55,822.93c-32.82,5.9-64.57,14.21-96.91,21.71-29.76,6.89-65.41,9.51-92.65,21.12,60.06-3.09,121.73-.9,181.49-7.5q4-.43,8.07-.81Z" transform="translate(-0.03)"/><path class="cls-3" d="M436.55,180.76c-16.88,2.75-33.8,5.45-50.54,8.47-39.75,7.17-81.89,2.38-120.77,12.82,24.5,2.66,49.37,9.46,73.45,11.45,22.62,1.86,43.08,13.57,62.05,28.67,13.27,10.56,23.72,13.79,35.81,15.1Z" transform="translate(-0.03)"/><path class="cls-3" d="M431.39,33.3c1.75,1,3.46,2.06,5.16,3.09V0c-13.93,1.75-27.66,4-41.11,6.59C405.57,18.12,418.41,25.68,431.39,33.3Z" transform="translate(-0.03)"/><path class="cls-3" d="M436.55,440c-14-5.18-27.9-11.08-42-16.52-25.08-9.68-49.14-23.68-74.87-30.11a466.78,466.78,0,0,0-81.11-13.28,694.55,694.55,0,0,1,108.75-4.76c28.88.92,59.12,1.2,89.23,3.36V321.79c-38.68-7.66-77.49-16.19-115.66-28.56-31-10.06-67.09-22.8-98.13-21.88a62.62,62.62,0,0,0-21.43,5c-6.54,2.66-12.07,6.55-18,10.18-6.14,3.79-13,5.81-17.51,11.53,9.19-.42,17.66-3,27.26-1.55,13.49,2.07,26.87,2.65,40.43,5.21,27,5.09,52.39,15.1,78.81,25.41,27,10.53,51.86,8.84,78.17,15.66-32.77.81-64.11-.25-97.15-1.46-26.86-1-57.09-3.05-82.43,3-26.72,6.38-50.38,19.37-76.56,26.85-24.11,6.9-49.4,20.14-66.93,36.36,17.28,1.73,39-5.86,56-7.65,22-2.33,37.6-6.73,61.44-2.57,28.56,5,58.8,20.06,87.48,29.29,18.14,5.83,33.88,8.32,52.41,10.91,16.69,2.33,38.87,1.25,54.1,7.64-31.06-7-70.13-1.56-100,1.39-34,3.35-66.58,9.31-100,14.65-18.81,3-34.8,4-50.66,13.39-18.26,10.85-36.95,20-56,29.59-18.3,9.24-29,23.13-44.14,35.88C20.38,546.56,1.7,552.23,0,562.15c36.53-31.79,101.34-23.23,148.57-35.24,39.12-10,83.71-13.53,125.46-15.34,41.45-1.79,84.82-1.06,124.77-8.47,12.81-2.38,25.33-5.67,37.75-9.08Z" transform="translate(-0.03)"/><path class="cls-3" d="M436.55,923.09c-12.68,2.41-24.27,6.62-33.22,13.35-9.25,6.95-16,14.5-20,25.48a505.07,505.07,0,0,1,53.21-.46Z" transform="translate(-0.03)"/><path class="cls-3" d="M322.77,756c13,6.48,26.82,11.4,40.22,17,13.82,5.8,32,7.16,44.74,15.06-23-8.71-50.77-6.35-74-10.74C319,774.54,304.15,766.9,289.31,764c-16.79-3.33-32.58-5.93-49.49-10.16-10.18-2.55-19.72-2.83-30-6.14-7-2.25-19.11-3.58-25.19-7-14.68-8.21-3.07-20.2,4.34-26.13,15.24-12.22,35.13-3.27,52.42,6.69,26.07,15,54.71,21.47,81.37,34.74" transform="translate(-0.03)"/><path class="cls-3" d="M436.55,530.71c-14.67,2.19-35.53,4.23-39.33,5-15.82,3.39-32.54,5.91-47,12.23-10.22,4.47-18.69,9.62-30.55,10.9a96.3,96.3,0,0,1-23.5-.86c-10.51-1.46-21.11-3.79-31.64-4.81-24.32-2.36-53.65,6.1-67.52,23.29,17.53,3.13,37.27-1.19,55.06-.31,12.51.62,24.93,2.5,37.37,2.73,22.77.43,45.73,4.84,68.49,4.31,16.8-.39,28.45-7.45,42.47-14.54,9.46-4.78,24.72-12.59,36.16-22Z" transform="translate(-0.03)"/><path class="cls-3" d="M436.55,99.3c-3.79-1.19-7.52-2.48-11.18-3.93-16.66-6.56-34.46-14.85-50-24.61-12-7.57-19.15-12.37-32.81-12.06-20.66.45-68.5,6.41-56.81,37.19,8.89,23.41,41,25.91,59.53,27.18,31,2.11,60.06-1.57,91.26.68Z" transform="translate(-0.03)"/></g></g></svg>