<svg xmlns="http://www.w3.org/2000/svg" xmlns:xlink="http://www.w3.org/1999/xlink" viewBox="0 0 2143 2858.54"><defs><style>.cls-1,.cls-4{fill:none;}.cls-2{clip-path:url(#clip-path);}.cls-3{fill:#00aef4;}.cls-4{stroke:#ffff01;stroke-miterlimit:10;stroke-width:3px;}</style><clipPath id="clip-path" transform="translate(0 -316.46)"><rect class="cls-1" x="149" width="1920" height="7826"/></clipPath></defs><title>main</title><g id="Capa_2" data-name="Capa 2"><g id="Capa_1-2" data-name="Capa 1"><g class="cls-2"><path class="cls-3" d="M131,1941.52s247.88-115.92,643.65-21.47c171.5,40.93,307.61,65.14,414.59,65.31,95.42.16,182.35-27.73,273.34-47.47,111.94-24.28,394-108.51,680.42,75.61l-7.11,246.43L2103.06,2970,131,3067.06Z" transform="translate(0 -316.46)"/><path class="cls-3" d="M0,3175s398-227.12,972-62,1140-99,1140-99l-39-112L151,2926Z" transform="translate(0 -316.46)"/><path class="cls-4" d="M428.42,402.93q-8.66-9-26.83-14-19.71-5.48-27.81-12.81t-8.1-19.38a23.15,23.15,0,0,1,3.5-12.59,24.79,24.79,0,0,1,9.31-8.76,26.22,26.22,0,0,1,12.81-3.18,6.73,6.73,0,0,1,3.61.88,2.71,2.71,0,0,1,1.43,2.41,4,4,0,0,1-1.32,2.84q-10.29.45-16,5.26t-5.7,13.14a20.88,20.88,0,0,0,8.43,17.3q8.43,6.57,22.23,6.57,13.37,0,21.79-7.12a22.84,22.84,0,0,0,8.43-18.28q0-17.52-16.31-27.38T372.69,318q-20.6,0-36,5.91T313,340a36.11,36.11,0,0,0-8.21,23.33q0,13.35,7.66,22.56t22.78,13.79q13.35,4.17,21.13,8.54t11.28,10q3.5,5.58,3.5,14.12a23.22,23.22,0,0,1-7.33,17.52,25.43,25.43,0,0,1-18.29,7,6.7,6.7,0,0,1-3.61-.88,2.67,2.67,0,0,1-1.43-2.4,4,4,0,0,1,1.32-2.85q10.29-.44,16-5.26t5.7-13.14a20.63,20.63,0,0,0-8.65-17.41q-8.65-6.45-23.33-6.46-12.7,0-20.8,7.12a23.24,23.24,0,0,0-8.1,18.29q0,18.18,16.31,27.7T366.77,471q33.94,0,52.12-11.72t18.18-33.62Q437.07,411.9,428.42,402.93Z" transform="translate(0 -316.46)"/><path class="cls-4" d="M584.24,457.46q1.53,5.91,3.61,7.88c1.39,1.32,3.61,2,6.68,2h48.4q7.23,0,7.23-7,0-3.51-4.16-15.33L607,333.72q-4.38-12-18.61-12H549c-1.75,0-2.63.73-2.63,2.19v2.63c0,1,.73,2,2.19,2.84a19.33,19.33,0,0,1,4.93,4.49,8.15,8.15,0,0,1,1.42,4.71q0,2.19-2,6.79l-3.72,8.1-8.54-19.71q-2.85-6.57-7.56-9.3t-13.47-2.74H477.58c-1.75,0-2.62.73-2.62,2.19v2.63c0,1,.73,2,2.19,2.84q5,3.29,6.9,5.92a10.78,10.78,0,0,1,1.86,6.35,14,14,0,0,1-1.32,5.47q-23.2,55.64-33.18,81.58t-10,30.77a7.42,7.42,0,0,0,2.3,5.8q2.29,2.08,6.68,2.08h55q6.78,0,6.79-5.47a33.1,33.1,0,0,0-1.32-7L490.07,369a27.51,27.51,0,0,1-1.1-5.69,3.05,3.05,0,0,1,1-2.41,3.36,3.36,0,0,1,2.3-.88,5.87,5.87,0,0,1,3.5,1.1l24.09,96.36q1.53,5.91,3.62,7.88c1.38,1.32,3.61,2,6.67,2h38.77q7.23,0,7.22-7a34.58,34.58,0,0,0-.87-5.48L554.45,369a27.27,27.27,0,0,1-1.09-5.69,3,3,0,0,1,1.09-2.3,3.79,3.79,0,0,1,2.63-1,5.3,5.3,0,0,1,3.07,1.1Z" transform="translate(0 -316.46)"/><path class="cls-4" d="M720.89,454V335c0-3.94,1.39-5.92,4.16-5.92s4.17,2,4.17,5.92V454q0,5.93-4.17,5.92T720.89,454ZM780.57,451q19.6-20,19.6-56.61t-19.6-56.51Q761,318,725.05,318t-55.51,19.92q-19.6,19.94-19.6,56.51T669.54,451q19.59,20,55.51,20T780.57,451Z" transform="translate(0 -316.46)"/></g></g></g></svg>