<svg xmlns="http://www.w3.org/2000/svg" viewBox="0 0 27.12 29.39"><defs><style>.cls-1{fill:#29abe2;}</style></defs><g id="Capa_2" data-name="Capa 2"><g id="ELEGI_TU_CARRERA" data-name="ELEGI TU CARRERA"><path class="cls-1" d="M7.62,4.78c-.06.2-.08.37-.14.51a2.82,2.82,0,0,1-3.61,1.6,2.66,2.66,0,0,1-1.73-2A7.46,7.46,0,0,1,2,3.72c0-.26-.07-.4-.35-.37a1.7,1.7,0,0,1-.39,0,1,1,0,0,0-1,.56A2.72,2.72,0,0,0,0,5Q0,16.36,0,27.72v.2a1.4,1.4,0,0,0,1.49,1.47c2.22-.06,4.43,0,6.65,0H25.82a1.32,1.32,0,0,0,.62-.15,1.48,1.48,0,0,0,.68-1.45V4.7c-.07-.83-.5-1.41-1.41-1.35a7.06,7.06,0,0,1-.92,0c-.32,0-.45.07-.43.42a4.64,4.64,0,0,1-.06.91,2.8,2.8,0,0,1-5.43.5,3.61,3.61,0,0,0-.15-.38,2.91,2.91,0,0,1-2.46,2.28,2.76,2.76,0,0,1-1.94-.55,2.68,2.68,0,0,1-1.1-1.75,2.85,2.85,0,0,1-5.6,0Zm4-2c0-.48,0-1,0-1.44A1.3,1.3,0,0,0,10.48,0,1.31,1.31,0,0,0,8.91,1.1c0,1-.07,2.09-.05,3.13a1.29,1.29,0,0,0,1.27,1.32,1.36,1.36,0,0,0,1.53-1.32C11.67,3.75,11.66,3.27,11.66,2.79Zm-5.57,0c0-.48,0-1,0-1.44A1.35,1.35,0,0,0,4.58,0,1.34,1.34,0,0,0,3.34,1.38V4.29a1.27,1.27,0,0,0,.05.39,1.4,1.4,0,0,0,1.71.84,1.27,1.27,0,0,0,1-1.29C6.1,3.75,6.09,3.27,6.09,2.79Zm11.07,0c0-.52,0-1,0-1.57a.85.85,0,0,0,0-.32A1.43,1.43,0,0,0,15.5,0a1.31,1.31,0,0,0-1.09,1.28V4.06a1.33,1.33,0,0,0,1.33,1.49,1.29,1.29,0,0,0,1.43-1.27C17.14,3.78,17.16,3.28,17.16,2.77Zm2.82,0V4.13a1.26,1.26,0,0,0,1.24,1.42,1.32,1.32,0,0,0,1.5-1.23c0-1,0-2,0-3A1.33,1.33,0,0,0,21.18,0,1.3,1.3,0,0,0,20,1.35Z"/><path class="cls-1" d="M7.62,4.78a2.85,2.85,0,0,0,5.6,0,2.68,2.68,0,0,0,1.1,1.75,2.76,2.76,0,0,0,1.94.55A2.91,2.91,0,0,0,18.72,4.8a3.61,3.61,0,0,1,.15.38,2.8,2.8,0,0,0,5.43-.5,4.64,4.64,0,0,0,.06-.91c0-.35.11-.44.43-.42a7.06,7.06,0,0,0,.92,0c.91-.06,1.34.52,1.41,1.35V27.76a1.48,1.48,0,0,1-.68,1.45,1.32,1.32,0,0,1-.62.15H8.14c-2.22,0-4.43,0-6.65,0A1.4,1.4,0,0,1,0,27.92v-.2Q0,16.36,0,5A2.72,2.72,0,0,1,.27,3.91a1,1,0,0,1,1-.56,1.7,1.7,0,0,0,.39,0c.28,0,.35.11.35.37a7.46,7.46,0,0,0,.1,1.16,2.66,2.66,0,0,0,1.73,2,2.82,2.82,0,0,0,3.61-1.6C7.54,5.15,7.56,5,7.62,4.78Zm6.14,21.9h9.06a1.35,1.35,0,0,0,.53-.1,1.54,1.54,0,0,0,.89-1.51V22.67c0-3.16,0-6.31,0-9.47a1.5,1.5,0,0,0-1.61-1.72l-17.84,0H4.72A1.46,1.46,0,0,0,3.26,13c0,1.3,0,2.6,0,3.89,0,2.76,0,5.51,0,8.26a1.55,1.55,0,0,0,1.58,1.58C7.78,26.65,10.77,26.68,13.76,26.68Z"/><path class="cls-1" d="M11.66,2.79c0,.48,0,1,0,1.44a1.36,1.36,0,0,1-1.53,1.32A1.29,1.29,0,0,1,8.86,4.23c0-1,0-2.09.05-3.13A1.31,1.31,0,0,1,10.48,0a1.3,1.3,0,0,1,1.18,1.33C11.68,1.83,11.66,2.31,11.66,2.79Z"/><path class="cls-1" d="M6.09,2.79c0,.48,0,1,0,1.44a1.27,1.27,0,0,1-1,1.29,1.4,1.4,0,0,1-1.71-.84,1.27,1.27,0,0,1-.05-.39V1.38A1.34,1.34,0,0,1,4.58,0,1.35,1.35,0,0,1,6.1,1.35C6.09,1.83,6.09,2.31,6.09,2.79Z"/><path class="cls-1" d="M17.16,2.77c0,.51,0,1,0,1.51a1.29,1.29,0,0,1-1.43,1.27,1.33,1.33,0,0,1-1.33-1.49V1.31A1.31,1.31,0,0,1,15.5,0a1.43,1.43,0,0,1,1.62.85.85.85,0,0,1,0,.32C17.17,1.73,17.16,2.25,17.16,2.77Z"/><path class="cls-1" d="M20,2.75V1.35A1.3,1.3,0,0,1,21.18,0a1.33,1.33,0,0,1,1.54,1.27c0,1,0,2,0,3a1.32,1.32,0,0,1-1.5,1.23A1.26,1.26,0,0,1,20,4.13Z"/><path d="M13.76,26.68c-3,0-6,0-9,0a1.55,1.55,0,0,1-1.58-1.58c0-2.75,0-5.5,0-8.26,0-1.29,0-2.59,0-3.89a1.46,1.46,0,0,1,1.46-1.44h.06l17.84,0a1.5,1.5,0,0,1,1.61,1.72c0,3.16,0,6.31,0,9.47v2.39a1.54,1.54,0,0,1-.89,1.51,1.35,1.35,0,0,1-.53.1ZM8.45,14.16c0-.25,0-.5,0-.75a1,1,0,0,0-1-1.05c-.41,0-.82,0-1.24,0a1,1,0,0,0-1.05,1c0,.51,0,1,0,1.54a1,1,0,0,0,.79.93l1.63,0a.91.91,0,0,0,.89-.9C8.46,14.66,8.45,14.41,8.45,14.16ZM18.67,19v.75a.91.91,0,0,0,1,1c.44,0,.88,0,1.31,0a1,1,0,0,0,1-.94c0-.52,0-1,0-1.54a.85.85,0,0,0-.79-.89,8.88,8.88,0,0,0-1.63,0,.89.89,0,0,0-.86,1A4.68,4.68,0,0,1,18.67,19ZM8.45,19v-.78a.8.8,0,0,0-.72-.86,15.89,15.89,0,0,0-1.69,0,.8.8,0,0,0-.82.78,10.7,10.7,0,0,0,0,1.79.92.92,0,0,0,1,.83c.4,0,.8,0,1.21,0a.92.92,0,0,0,1-1Zm10.22-4.88v.75a.9.9,0,0,0,.92.93c.45,0,.9,0,1.34,0a.92.92,0,0,0,1-1c0-.51,0-1,0-1.51a.83.83,0,0,0-.66-.86,8.18,8.18,0,0,0-1.85,0c-.55.07-.76.43-.76,1ZM14.21,19v.85a.86.86,0,0,0,.87.86h1.44a.86.86,0,0,0,.9-.85c0-.57,0-1.13,0-1.7a.74.74,0,0,0-.7-.81,11.06,11.06,0,0,0-1.82,0c-.47,0-.68.34-.69.83Zm6.11,6.56H21a.85.85,0,0,0,.9-.86c0-.52,0-1,0-1.57a.9.9,0,0,0-1-.92H19.53a.89.89,0,0,0-.86.85c0,.54,0,1.09,0,1.63a.86.86,0,0,0,.87.86ZM12.91,19v-.91a.71.71,0,0,0-.63-.75,11.86,11.86,0,0,0-1.79,0,.74.74,0,0,0-.77.77,14,14,0,0,0,0,1.83.85.85,0,0,0,.9.78H12a.85.85,0,0,0,.9-.89ZM6.82,25.57h.79a.85.85,0,0,0,.84-.81c0-.56,0-1.12,0-1.67a.87.87,0,0,0-.86-.86c-.52,0-1,0-1.57,0a.74.74,0,0,0-.73.54,4.52,4.52,0,0,0,0,2.1c.08.55.34.7.9.7Zm6.09-11.44v-.88c0-.4-.16-.7-.55-.74a9.39,9.39,0,0,0-1.91,0,.8.8,0,0,0-.75.88c0,.53,0,1.07,0,1.6a.84.84,0,0,0,.91.86h1.44a.85.85,0,0,0,.86-.86Zm1.3,0v.81a.85.85,0,0,0,.9.9h1.37a.86.86,0,0,0,.94-.93c0-.51,0-1,0-1.54a.77.77,0,0,0-.73-.88,7.61,7.61,0,0,0-1.72,0c-.59.07-.76.34-.76.94Zm0,9.82c0,.3,0,.61,0,.91a.75.75,0,0,0,.74.75H16.6a.74.74,0,0,0,.81-.75c0-.59,0-1.18,0-1.77a.88.88,0,0,0-.91-.83c-.45,0-.91,0-1.37,0a.85.85,0,0,0-.93.93Zm-2.88,1.66h.82a.74.74,0,0,0,.75-.77q0-.89,0-1.77a.8.8,0,0,0-.8-.8H10.59a.84.84,0,0,0-.88.82,14.26,14.26,0,0,0,0,1.73c0,.56.33.8.9.8Z"/><path class="cls-1" d="M8.45,14.16c0,.25,0,.5,0,.75a.91.91,0,0,1-.89.9l-1.63,0a1,1,0,0,1-.79-.93c0-.51,0-1,0-1.54a1,1,0,0,1,1.05-1c.42,0,.83,0,1.24,0a1,1,0,0,1,1,1.05C8.44,13.66,8.45,13.91,8.45,14.16Z"/><path class="cls-1" d="M18.67,19a4.68,4.68,0,0,0,0-.65.89.89,0,0,1,.86-1,8.88,8.88,0,0,1,1.63,0,.85.85,0,0,1,.79.89c0,.51,0,1,0,1.54a1,1,0,0,1-1,.94c-.43,0-.87,0-1.31,0a.91.91,0,0,1-1-1Z"/><path class="cls-1" d="M8.45,19v.72a.92.92,0,0,1-1,1c-.41,0-.81,0-1.21,0a.92.92,0,0,1-1-.83,10.7,10.7,0,0,1,0-1.79A.8.8,0,0,1,6,17.33a15.89,15.89,0,0,1,1.69,0,.8.8,0,0,1,.72.86Z"/><path class="cls-1" d="M18.67,14.13v-.66c0-.58.21-.94.76-1a8.18,8.18,0,0,1,1.85,0,.83.83,0,0,1,.66.86c0,.5,0,1,0,1.51a.92.92,0,0,1-1,1c-.44,0-.89,0-1.34,0a.9.9,0,0,1-.92-.93Z"/><path class="cls-1" d="M14.21,19V18.2c0-.49.22-.79.69-.83a11.06,11.06,0,0,1,1.82,0,.74.74,0,0,1,.7.81c0,.57,0,1.13,0,1.7a.86.86,0,0,1-.9.85H15.08a.86.86,0,0,1-.87-.86Z"/><path class="cls-1" d="M20.32,25.57h-.78a.86.86,0,0,1-.87-.86c0-.54,0-1.09,0-1.63a.89.89,0,0,1,.86-.85H21a.9.9,0,0,1,1,.92c0,.53,0,1.05,0,1.57a.85.85,0,0,1-.9.86Z"/><path class="cls-1" d="M12.91,19v.79a.85.85,0,0,1-.9.89h-1.4a.85.85,0,0,1-.9-.78,14,14,0,0,1,0-1.83.74.74,0,0,1,.77-.77,11.86,11.86,0,0,1,1.79,0,.71.71,0,0,1,.63.75Z"/><path class="cls-1" d="M6.82,25.57H6.14c-.56,0-.82-.15-.9-.7a4.52,4.52,0,0,1,0-2.1A.74.74,0,0,1,6,22.23c.53,0,1.05,0,1.57,0a.87.87,0,0,1,.86.86c0,.55,0,1.11,0,1.67a.85.85,0,0,1-.84.81Z"/><path class="cls-1" d="M12.91,14.13V15a.85.85,0,0,1-.86.86H10.61a.84.84,0,0,1-.91-.86c0-.53,0-1.07,0-1.6a.8.8,0,0,1,.75-.88,9.39,9.39,0,0,1,1.91,0c.39,0,.54.34.55.74Z"/><path class="cls-1" d="M14.21,14.09V13.4c0-.6.17-.87.76-.94a7.61,7.61,0,0,1,1.72,0,.77.77,0,0,1,.73.88c0,.51,0,1,0,1.54a.86.86,0,0,1-.94.93H15.11a.85.85,0,0,1-.9-.9Z"/><path class="cls-1" d="M14.21,23.91v-.76a.85.85,0,0,1,.93-.93c.46,0,.92,0,1.37,0a.88.88,0,0,1,.91.83c0,.59,0,1.18,0,1.77a.74.74,0,0,1-.81.75H15a.75.75,0,0,1-.74-.75C14.21,24.52,14.21,24.21,14.21,23.91Z"/><path class="cls-1" d="M11.33,25.57h-.72c-.57,0-.87-.24-.9-.8a14.26,14.26,0,0,1,0-1.73.84.84,0,0,1,.88-.82H12.1a.8.8,0,0,1,.8.8q0,.88,0,1.77a.74.74,0,0,1-.75.77Z"/></g></g></svg>