<svg xmlns="http://www.w3.org/2000/svg" viewBox="0 0 26.51 34.39"><defs><style>.cls-1{fill:#eb008b;}</style></defs><g id="Capa_2" data-name="Capa 2"><g id="ELEGI_TU_CARRERA" data-name="ELEGI TU CARRERA"><path class="cls-1" d="M12.2,34.39H.92c-.78,0-.93-.16-.92-1A11,11,0,0,1,7.68,23c5.06-1.7,9.7-.86,13.62,2.88a10,10,0,0,1,3.12,7.62c0,.71-.15.87-.85.87H12.2Z"/><path class="cls-1" d="M11.86,8.56a6.09,6.09,0,1,1-6.08,6.13A6.06,6.06,0,0,1,11.86,8.56Z"/><path class="cls-1" d="M12.46,0A14.66,14.66,0,0,1,26.34,12.36a17.7,17.7,0,0,1,.17,2.06c0,.53-.19.81-.58.81s-.59-.27-.6-.81a13,13,0,0,0-2.58-7.69A13.19,13.19,0,0,0,12.28,1.19a3.4,3.4,0,0,1-.45,0,.55.55,0,0,1-.54-.61A.53.53,0,0,1,11.86,0C12.1,0,12.34,0,12.46,0Z"/><path class="cls-1" d="M21.62,14.15c0,.14,0,.28,0,.42,0,.4-.25.69-.59.66a.6.6,0,0,1-.59-.63A14.94,14.94,0,0,0,20.27,13a8.56,8.56,0,0,0-8.16-6.89H12c-.44,0-.72-.27-.69-.62s.3-.56.7-.56a9.64,9.64,0,0,1,3.23.57A9.79,9.79,0,0,1,21.62,14.15Z"/></g></g></svg>