<svg xmlns="http://www.w3.org/2000/svg" viewBox="0 0 21.46 33.56"><defs><style>.a00c0f8d-a041-4212-b71d-a3607cf3c03f{fill:#eb008b;}</style></defs><title>dolar</title><g id="e8a501a3-8b32-4732-8e2f-153529462e06" data-name="Capa 2"><g id="b681984b-db91-4e2c-ae3e-02869e2e96f0" data-name="Capa 1"><path class="a00c0f8d-a041-4212-b71d-a3607cf3c03f" d="M20.54,9.4l-.45.1-4.1.85c-.55-1.65-1.38-2.95-3.26-3.27v.79c0,1.73,0,3.46,0,5.2,0,.24,0,.36.31.44,1.36.41,2.72.85,4.07,1.28a5.8,5.8,0,0,1,3.33,2.93,8,8,0,0,1,.48,6.83,7.62,7.62,0,0,1-5.19,4.73c-1,.31-2,.48-3,.73v3.55H9.48V29.93c-4.79-.5-8-2.85-9.48-7.59l4.8-1.11c.64,2.42,2,4.15,4.63,4.49a1.32,1.32,0,0,0,.05-.26c0-2.19,0-4.37,0-6.56,0-.38-.16-.46-.46-.53a22.47,22.47,0,0,1-4.2-1.46,6.26,6.26,0,0,1-3.58-4.56,7.62,7.62,0,0,1,1-5.76A6.73,6.73,0,0,1,4.9,4.21,13,13,0,0,1,9.11,2.92l.37-.08V0h3.24V2.86a9.41,9.41,0,0,1,6,3,8.53,8.53,0,0,1,1.8,3.53M12.75,25.75a4,4,0,0,0,3.4-2,3,3,0,0,0-.95-3.95,7,7,0,0,0-2.45-.94ZM9.45,7c-.45.09-.87.16-1.28.26a2.82,2.82,0,0,0-1.87,4c.64,1.26,1.89,1.5,3.15,1.77Z"/></g></g></svg>