<svg xmlns="http://www.w3.org/2000/svg" viewBox="0 0 36.92 35.14"><defs><style>.b9b98e2f-32c1-403e-9796-db62968be0fa{fill:#eb008b;}</style></defs><title>estrella</title><g id="a210d53a-a9b7-4b55-a0d9-b58589e4a4d1" data-name="Capa 2"><g id="af894032-44fa-4ba4-a433-94208536bd16" data-name="Capa 1"><path class="b9b98e2f-32c1-403e-9796-db62968be0fa" d="M18.41,0c1.05,2.07,2,3.94,2.94,5.82.68,1.36,1.36,2.72,2,4.1A3.16,3.16,0,0,0,26,11.81c3.17.44,6.34.92,9.51,1.39.4.06.8.15,1.44.27-1.42,1.39-2.7,2.65-4,3.9s-2.58,2.55-3.9,3.79a3.13,3.13,0,0,0-1,3.06c.57,3.22,1.11,6.45,1.66,9.67.06.34.1.69.18,1.25-.45-.21-.75-.33-1-.48-2.87-1.51-5.74-3-8.59-4.53a3.44,3.44,0,0,0-3.58,0c-2.87,1.56-5.79,3-8.69,4.55-.25.13-.51.24-1,.44.32-1.88.6-3.59.89-5.3s.62-3.7,1-5.55a3.17,3.17,0,0,0-1-3.07C5.54,19,3.28,16.71,1,14.47a12.19,12.19,0,0,0-1-.76c.05-.11.11-.21.16-.31l5.13-.77c1.82-.27,3.64-.57,5.48-.78a3.31,3.31,0,0,0,2.82-2C15.13,6.6,16.73,3.42,18.41,0"/></g></g></svg>