<svg id="a4db83e2-b228-4f96-8b43-f69056f5bb9e" data-name="Capa 1" xmlns="http://www.w3.org/2000/svg" xmlns:xlink="http://www.w3.org/1999/xlink" viewBox="0 0 1681.57 1163.68"><defs><style>.a4dc81fb-e0aa-4bd0-88f7-9e7356f990c4,.b6a96f66-efbb-473c-b824-8e8769afcd49,.f2558227-edf4-4ef3-a121-aa82b97cb0db{fill:none;}.bd01b7b8-784d-4a63-829d-a4b5d08cd8e3{clip-path:url(#b4dd9438-a805-4598-9c26-48b5743b0dc3);}.ba76dd21-2002-49ca-80d4-8d3e25aba3b3{fill:#c80186;}.b39c74fb-a8ec-43bd-9abf-2e6ec5575c25{fill:#f4d833;}.af0c9910-4ca4-4714-9176-c2c820a24898{fill:#61abf0;}.b6a96f66-efbb-473c-b824-8e8769afcd49{stroke:#000;}.a4dc81fb-e0aa-4bd0-88f7-9e7356f990c4,.b6a96f66-efbb-473c-b824-8e8769afcd49{stroke-miterlimit:10;}.a4dc81fb-e0aa-4bd0-88f7-9e7356f990c4{stroke:#f4d833;stroke-width:2px;}.a2f850ef-f2cf-4dbb-821e-48735a27d4a6{fill:#faf038;}.a923c097-0257-4f79-b985-078f15d86fc6{fill:#61aaea;}</style><clipPath id="b4dd9438-a805-4598-9c26-48b5743b0dc3" transform="translate(794.75)"><polyline id="f03f7bcb-f999-47e0-b7e0-98aadad282d4" data-name="SVGID" class="f2558227-edf4-4ef3-a121-aa82b97cb0db" points="-988.03 12397.17 -988.03 -303.83 942.97 -303.83 942.97 12397.17 -988.03 12397.17"/></clipPath></defs><title>ilus</title><g class="bd01b7b8-784d-4a63-829d-a4b5d08cd8e3"><path class="ba76dd21-2002-49ca-80d4-8d3e25aba3b3" d="M-308.71,1163.68l.47-.14-3.26-.59Z" transform="translate(794.75)"/><path class="ba76dd21-2002-49ca-80d4-8d3e25aba3b3" d="M-794.75,1160.92l.32.45,4.26.38c.07-.22.14-.44.2-.66Z" transform="translate(794.75)"/><path class="b39c74fb-a8ec-43bd-9abf-2e6ec5575c25" d="M842.56,930c2.82-15.53-3.14-31.46-15.39-43.35C799.58,859.78,720.89,792,597.12,754c-156.68-48.08-193.34-76.61-327.43-4.09S104.12,945.05,171.33,980.37c82.49,43.34,150.34,62,308.91,10,15.38-5,108.11-27.18,228.74-15,90.46,9.13,128-14.75,133.58-45.45" transform="translate(794.75)"/><path class="b39c74fb-a8ec-43bd-9abf-2e6ec5575c25" d="M324.23,154.84,328.7,146c1.88-3.73,4.25-5.78,6.7-5.78h46.13c2.77,0,5.48,1.86,7.83,5.36l6.25,9.31Z" transform="translate(794.75)"/><path class="b39c74fb-a8ec-43bd-9abf-2e6ec5575c25" d="M404.76,157.43l2.64-7.67c1.7-4.9,5.58-8.09,9.88-8.09H428.1c5.63,0,10.72,4.17,12.94,10.61l1.78,5.15Z" transform="translate(794.75)"/><path class="af0c9910-4ca4-4714-9176-c2c820a24898" d="M273.3,207.9s-4.57-55.65,38.87-55.65h297.2S651.66,151,654,202.73s0,658.74,0,658.74,10.29,63.41-46.87,59.53H312.17s-43.44,3.88-38.87-75.06" transform="translate(794.75)"/><path class="af0c9910-4ca4-4714-9176-c2c820a24898" d="M280.16,220.85s-1.71-60.18,41.15-60.83H608.23s36.57,2.59,38.86,46.59,0,661.33,0,661.33,3.43,49.18-45.72,49.18H320.17S281.3,919.71,279,852.41s1.14-631.56,1.14-631.56" transform="translate(794.75)"/><rect class="ba76dd21-2002-49ca-80d4-8d3e25aba3b3" x="1095.48" y="260.97" width="326.92" height="569.44"/><path class="b39c74fb-a8ec-43bd-9abf-2e6ec5575c25" d="M499.58,229.91H428.82a9.2,9.2,0,0,1-9.2-9.2V209.34a9.2,9.2,0,0,1,9.2-9.2h70.76a9.2,9.2,0,0,1,9.2,9.2v11.37a9.2,9.2,0,0,1-9.2,9.2" transform="translate(794.75)"/><path class="b39c74fb-a8ec-43bd-9abf-2e6ec5575c25" d="M499.58,883.47H428.82a9.2,9.2,0,0,1-9.2-9.2V862.9a9.2,9.2,0,0,1,9.2-9.2h70.76a9.2,9.2,0,0,1,9.2,9.2v11.37a9.2,9.2,0,0,1-9.2,9.2" transform="translate(794.75)"/><path class="b39c74fb-a8ec-43bd-9abf-2e6ec5575c25" d="M356.75,748.87c0,12.16-8.7,22-19.44,22s-19.43-9.85-19.43-22,8.7-22,19.43-22,19.44,9.85,19.44,22" transform="translate(794.75)"/><rect class="b39c74fb-a8ec-43bd-9abf-2e6ec5575c25" x="1168.64" y="726.87" width="232.05" height="7.77"/><rect class="b39c74fb-a8ec-43bd-9abf-2e6ec5575c25" x="1170.07" y="754.05" width="226.33" height="6.47"/><rect class="b39c74fb-a8ec-43bd-9abf-2e6ec5575c25" x="1168.64" y="776.05" width="110.88" height="7.76"/><path class="b39c74fb-a8ec-43bd-9abf-2e6ec5575c25" d="M333.89,290.73c0,5-3.59,9.06-8,9.06s-8-4.05-8-9.06,3.59-9.06,8-9.06,8,4.06,8,9.06" transform="translate(794.75)"/><path class="b39c74fb-a8ec-43bd-9abf-2e6ec5575c25" d="M356.75,290.73c0,5-3.58,9.06-8,9.06s-8-4.05-8-9.06,3.59-9.06,8-9.06,8,4.06,8,9.06" transform="translate(794.75)"/><path class="b39c74fb-a8ec-43bd-9abf-2e6ec5575c25" d="M379.61,290.73c0,5-3.58,9.06-8,9.06s-8-4.05-8-9.06,3.58-9.06,8-9.06,8,4.06,8,9.06" transform="translate(794.75)"/><rect x="1096.11" y="317.08" width="325.78" height="349.43"/><rect class="b6a96f66-efbb-473c-b824-8e8769afcd49" x="1096.11" y="317.08" width="325.78" height="349.43"/><polygon class="a4dc81fb-e0aa-4bd0-88f7-9e7356f990c4" points="1200.29 558.5 1166.23 486.13 1257.65 553.13 1347.12 483.95 1314.43 557.13 1313.6 469.01 1281.72 557.52 1256.39 455 1231.66 558.12 1201.48 472.35 1200.29 558.5"/><path class="b39c74fb-a8ec-43bd-9abf-2e6ec5575c25" d="M361.82,475.46c-2.94,0-5.12-2.72-5.24-5.93s2.5-5.94,5.24-5.94c2.94,0,5.11,2.72,5.24,5.94s-2.5,5.93-5.24,5.93m40.52-24.29c2.74,0,5.37-2.72,5.24-5.93s-2.3-5.94-5.24-5.94c-2.75,0-5.37,2.73-5.25,5.94s2.31,5.93,5.25,5.93m162.08,24.29c2.74,0,5.37-2.73,5.24-5.93s-2.3-5.94-5.24-5.94c-2.75,0-5.37,2.73-5.24,5.94s2.3,5.93,5.24,5.93M523.9,451.17c2.74,0,5.37-2.72,5.24-5.93s-2.3-5.94-5.24-5.94c-2.74,0-5.37,2.73-5.24,5.94s2.3,5.93,5.24,5.93m-63.17-14.84c2.74,0,5.37-2.73,5.24-5.93s-2.3-5.94-5.24-5.94c-2.74,0-5.37,2.73-5.25,5.94s2.31,5.93,5.25,5.93" transform="translate(794.75)"/><path class="af0c9910-4ca4-4714-9176-c2c820a24898" d="M105.36,97.09v-1a2.55,2.55,0,0,1,1.5-1c5.22-1,8.71-4.36,11.35-8.73,2.21-3.68,1.86-4.52-2.23-6l-.7-.25a8.75,8.75,0,0,1-2.48-1.38c-1.83-1.59-.75-3.88,1.41-4.4,1.57-.38,2.94.63,4.47.83,1,.12,1.43-.22,1.31-1.31a52.86,52.86,0,0,1-.19-8.44,14.31,14.31,0,0,1,7.37-12.11,18.6,18.6,0,0,1,19.93-.06,14.2,14.2,0,0,1,7.33,11,48.38,48.38,0,0,1,0,9.55c-.11,1.38.17,1.63,1.54,1.31,1.69-.4,3.12-1.27,4.88-.5a2.69,2.69,0,0,1,1.74,2.34,2.59,2.59,0,0,1-1,1.82,10,10,0,0,1-2.87,1.5c-.76.32-1.56.56-2.31.91-1.54.72-2,1.67-1.26,3.2,2.5,5.28,6.17,9.29,12.11,10.68A2.84,2.84,0,0,1,169,96.1v1a4.58,4.58,0,0,1-2.71,2.23,12.53,12.53,0,0,1-3.57,1,2.72,2.72,0,0,0-2.89,2.66c-.25,1.7-.77,1.94-2.51,1.8-.41,0-.82-.11-1.22-.18-3.41-.61-6.6-.26-9.4,2A20.56,20.56,0,0,1,145,107.8c-4.77,3.1-9.66,3.45-14.64.55-1.35-.79-2.64-1.71-4-2.57a8.8,8.8,0,0,0-3.57-1.31,23.12,23.12,0,0,0-6,.37c-1,.12-2-.18-2.09-1.24-.14-2.58-1.72-3.21-3.88-3.45a11.26,11.26,0,0,1-3-.91,4.32,4.32,0,0,1-2.47-2.15" transform="translate(794.75)"/><path class="a2f850ef-f2cf-4dbb-821e-48735a27d4a6" d="M733.73,574.64a23.55,23.55,0,0,1-5.72,1.63c.92-.15,2.27-1.82,2.81-2.49a10.33,10.33,0,0,0,1.9-3.47c0-.1.09-.22,0-.3a.32.32,0,0,0-.3,0,29.1,29.1,0,0,1-6.79,2.59.45.45,0,0,1-.47-.12,4.79,4.79,0,0,0-.59-.6,11.71,11.71,0,0,0-3.28-2,11.46,11.46,0,0,0-5-.81,12.19,12.19,0,0,0-8.64,4.5,11.77,11.77,0,0,0-2.31,4.62,12.47,12.47,0,0,0-.12,4.87c0,.27,0,.31-.23.27-9.32-1.39-17.05-4.72-23.32-11.87-.27-.31-.42-.31-.64,0-2.74,4.11-1.41,10.72,2,14a17.49,17.49,0,0,0,1.43,1.27,11.94,11.94,0,0,1-4.5-1.27c-.27-.17-.41-.07-.43.24a6.89,6.89,0,0,0,.07,1.34,12,12,0,0,0,7.37,9.53,7.11,7.11,0,0,0,1.49.45,13.27,13.27,0,0,1-4.41.14c-.32-.06-.44.1-.32.41,1.94,5.29,6.13,6.86,9.27,7.76.42.07.84.07,1.26.17,0,0-.05,0-.07.08-1,1.58-4.65,2.76-6.33,3.35a22.65,22.65,0,0,1-9.62,1.23c-.52-.08-.62-.07-.76,0s0,.21.14.35c.66.43,1.33.81,2,1.18a31.81,31.81,0,0,0,6.42,2.58c11.55,3.18,24.56.84,33.24-7.78,6.81-6.76,9.19-16.09,9.19-25.44,0-.36.44-.56.69-.76a22.7,22.7,0,0,0,4.53-4.7,1.45,1.45,0,0,0,.29-.9v-.05c0-.15,0-.11-.23,0" transform="translate(794.75)"/><path class="a923c097-0257-4f79-b985-078f15d86fc6" d="M46.52,357.67a3.57,3.57,0,1,0,3.56,3.56,3.57,3.57,0,0,0-3.56-3.56" transform="translate(794.75)"/><path class="a923c097-0257-4f79-b985-078f15d86fc6" d="M30.66,362.24a15,15,0,1,0,15,15,15,15,0,0,0-15-15m0,24.58a9.6,9.6,0,1,1,9.6-9.6,9.61,9.61,0,0,1-9.6,9.6" transform="translate(794.75)"/><path class="a923c097-0257-4f79-b985-078f15d86fc6" d="M42.56,407.63H18.27A18.29,18.29,0,0,1,0,389.37V365.08a18.29,18.29,0,0,1,18.27-18.27H42.56a18.29,18.29,0,0,1,18.27,18.27v24.29a18.29,18.29,0,0,1-18.27,18.26m-24.29-55.1A12.56,12.56,0,0,0,5.72,365.08v24.29a12.56,12.56,0,0,0,12.55,12.54H42.56A12.55,12.55,0,0,0,55.1,389.37V365.08a12.56,12.56,0,0,0-12.54-12.55Z" transform="translate(794.75)"/><path class="a923c097-0257-4f79-b985-078f15d86fc6" d="M872.52,121.67a3.57,3.57,0,1,0,3.56,3.56,3.57,3.57,0,0,0-3.56-3.56" transform="translate(794.75)"/><path class="a923c097-0257-4f79-b985-078f15d86fc6" d="M856.66,126.24a15,15,0,1,0,15,15,15,15,0,0,0-15-15m0,24.58a9.6,9.6,0,1,1,9.6-9.6,9.61,9.61,0,0,1-9.6,9.6" transform="translate(794.75)"/><path class="a923c097-0257-4f79-b985-078f15d86fc6" d="M868.56,171.63H844.27A18.29,18.29,0,0,1,826,153.37V129.08a18.29,18.29,0,0,1,18.27-18.27h24.29a18.29,18.29,0,0,1,18.27,18.27v24.29a18.29,18.29,0,0,1-18.27,18.26m-24.29-55.1a12.56,12.56,0,0,0-12.55,12.55v24.29a12.56,12.56,0,0,0,12.55,12.54h24.29a12.55,12.55,0,0,0,12.54-12.54V129.08a12.56,12.56,0,0,0-12.54-12.55Z" transform="translate(794.75)"/><path class="af0c9910-4ca4-4714-9176-c2c820a24898" d="M193.73,683.56a23.47,23.47,0,0,1-5.71,1.63c.92-.16,2.27-1.82,2.81-2.49a10.56,10.56,0,0,0,1.9-3.46c.05-.1.08-.22,0-.3a.32.32,0,0,0-.3,0,29.22,29.22,0,0,1-6.77,2.59.46.46,0,0,1-.47-.12,4.91,4.91,0,0,0-.59-.61,11.92,11.92,0,0,0-3.28-2,11.39,11.39,0,0,0-5-.81,12.06,12.06,0,0,0-4.77,1.35,12.32,12.32,0,0,0-3.85,3.14,11.78,11.78,0,0,0-2.3,4.61,12.42,12.42,0,0,0-.13,4.86c0,.27,0,.31-.23.27-9.3-1.38-17-4.71-23.27-11.84-.27-.31-.42-.31-.64,0-2.74,4.11-1.41,10.7,2,14,.46.43.93.86,1.43,1.25a12,12,0,0,1-4.49-1.25c-.27-.18-.41-.08-.43.23a7.61,7.61,0,0,0,.07,1.33,11.94,11.94,0,0,0,7.36,9.51,7,7,0,0,0,1.49.46,13.23,13.23,0,0,1-4.4.14c-.33-.07-.45.09-.33.4,1.94,5.28,6.13,6.85,9.26,7.75.42.07.84.07,1.26.17,0,0-.05,0-.08.08-1,1.58-4.64,2.76-6.32,3.35a22.67,22.67,0,0,1-9.59,1.22c-.52-.07-.63-.06-.77,0s0,.22.15.35c.65.43,1.32.81,2,1.18a31.69,31.69,0,0,0,6.41,2.57c11.53,3.18,24.52.84,33.17-7.76,6.8-6.75,9.18-16.06,9.18-25.39,0-.37.44-.57.69-.76a22.59,22.59,0,0,0,4.52-4.69,1.45,1.45,0,0,0,.29-.9v-.05c0-.15,0-.11-.23,0" transform="translate(794.75)"/><path class="b39c74fb-a8ec-43bd-9abf-2e6ec5575c25" d="M218.35,326.15c-.53.05-1.06.08-1.6.08a17.33,17.33,0,0,1-14.5-7.84v26.69a19.73,19.73,0,1,1-19.73-19.73c.41,0,.81,0,1.22.07v9.72a10,10,0,1,0-1.22,20c5.56,0,10.47-4.39,10.47-10l.1-45.33h9.3a17.33,17.33,0,0,0,16,15.46v10.81" transform="translate(794.75)"/><path class="a923c097-0257-4f79-b985-078f15d86fc6" d="M860.29,411a14.11,14.11,0,0,1-1.59.08,17.34,17.34,0,0,1-14.51-7.83v26.69a19.73,19.73,0,1,1-19.73-19.73c.41,0,.81,0,1.22.06V420a9.89,9.89,0,0,0-1.22-.13,10.07,10.07,0,0,0,0,20.14c5.56,0,10.48-4.38,10.48-9.94l.09-45.34h9.3a17.34,17.34,0,0,0,16,15.47V411" transform="translate(794.75)"/><path class="b39c74fb-a8ec-43bd-9abf-2e6ec5575c25" d="M23.13,600.06v-1a2.65,2.65,0,0,1,1.5-1c5.23-1,8.72-4.36,11.35-8.74,2.22-3.67,1.86-4.51-2.22-6-.23-.08-.47-.15-.7-.24a9.06,9.06,0,0,1-2.49-1.38c-1.83-1.59-.74-3.88,1.41-4.4,1.58-.38,2.95.63,4.48.82,1,.13,1.43-.21,1.31-1.3a51.72,51.72,0,0,1-.19-8.44A14.27,14.27,0,0,1,45,556.31a18.58,18.58,0,0,1,19.93-.06,14.23,14.23,0,0,1,7.33,10.94,49.15,49.15,0,0,1,0,9.55c-.11,1.38.18,1.64,1.54,1.32,1.7-.4,3.12-1.27,4.89-.5a2.71,2.71,0,0,1,1.74,2.34,2.61,2.61,0,0,1-1,1.82,10,10,0,0,1-2.87,1.5c-.77.31-1.56.56-2.31.9-1.54.73-2,1.68-1.26,3.21,2.49,5.28,6.16,9.29,12.1,10.68a2.87,2.87,0,0,1,1.75,1v1a4.58,4.58,0,0,1-2.71,2.23,12.5,12.5,0,0,1-3.58,1A2.73,2.73,0,0,0,77.62,606c-.25,1.71-.76,1.95-2.5,1.81-.41,0-.82-.11-1.23-.18-3.4-.61-6.59-.26-9.39,2a20.72,20.72,0,0,1-1.75,1.19c-4.77,3.1-9.65,3.45-14.63.54-1.36-.79-2.65-1.7-4-2.56a8.8,8.8,0,0,0-3.57-1.31,23.17,23.17,0,0,0-6.06.37c-1,.12-2-.18-2.08-1.25-.14-2.57-1.72-3.2-3.89-3.44a11.31,11.31,0,0,1-2.95-.91,4.37,4.37,0,0,1-2.48-2.15" transform="translate(794.75)"/><path class="ba76dd21-2002-49ca-80d4-8d3e25aba3b3" d="M764.55,273a41.5,41.5,0,1,0-48,41V285H706V273h10.54v-9.14c0-10.4,6.19-16.15,15.67-16.15a63.88,63.88,0,0,1,9.29.81v10.21H736.3c-5.16,0-6.77,3.2-6.77,6.49V273h11.52l-1.84,12h-9.68v29a41.5,41.5,0,0,0,35-41" transform="translate(794.75)"/><path class="a2f850ef-f2cf-4dbb-821e-48735a27d4a6" d="M739.21,285l1.84-12H729.53v-7.78c0-3.29,1.61-6.49,6.77-6.49h5.23V248.51a63.88,63.88,0,0,0-9.29-.81c-9.48,0-15.68,5.75-15.68,16.15V273H706v12h10.53v29a41.49,41.49,0,0,0,13,0V285Z" transform="translate(794.75)"/><path class="af0c9910-4ca4-4714-9176-c2c820a24898" d="M632,46.67v-1a2.71,2.71,0,0,1,1.5-1c5.22-1,8.72-4.36,11.35-8.73,2.22-3.67,1.86-4.52-2.22-6-.24-.08-.48-.15-.7-.24a8.7,8.7,0,0,1-2.49-1.39c-1.83-1.59-.75-3.88,1.41-4.4,1.58-.38,2.95.64,4.48.83,1,.13,1.43-.22,1.3-1.31a52.74,52.74,0,0,1-.18-8.43,14.28,14.28,0,0,1,7.36-12.11,18.59,18.59,0,0,1,19.94-.06,14.23,14.23,0,0,1,7.33,10.94,49.15,49.15,0,0,1,0,9.55c-.11,1.38.17,1.64,1.54,1.31,1.7-.39,3.12-1.27,4.89-.49a2.69,2.69,0,0,1,1.74,2.34,2.57,2.57,0,0,1-1,1.81,9.8,9.8,0,0,1-2.86,1.51c-.77.31-1.57.55-2.31.9-1.55.72-2,1.68-1.27,3.2,2.5,5.28,6.17,9.3,12.11,10.69a2.82,2.82,0,0,1,1.75,1v1a4.6,4.6,0,0,1-2.72,2.23,12.79,12.79,0,0,1-3.57,1,2.72,2.72,0,0,0-2.89,2.65c-.25,1.7-.76,2-2.5,1.81-.41,0-.82-.11-1.23-.19-3.4-.6-6.6-.26-9.4,2a19.16,19.16,0,0,1-1.74,1.2c-4.77,3.09-9.65,3.44-14.63.54-1.36-.79-2.65-1.7-4-2.57a8.59,8.59,0,0,0-3.57-1.3c-2.06-.32-4,.15-6,.37-1,.11-2-.18-2.09-1.25-.14-2.57-1.71-3.2-3.88-3.44a10.85,10.85,0,0,1-2.95-.92A4.31,4.31,0,0,1,632,46.67" transform="translate(794.75)"/><path class="a2f850ef-f2cf-4dbb-821e-48735a27d4a6" d="M406.47,52.45l1.84-12H396.8V32.67c0-3.29,1.6-6.49,6.76-6.49h5.23V16a63.88,63.88,0,0,0-9.29-.81c-9.48,0-15.67,5.74-15.67,16.15v9.14H373.29v12h10.54v29a42.31,42.31,0,0,0,13,0v-29Z" transform="translate(794.75)"/><path class="b39c74fb-a8ec-43bd-9abf-2e6ec5575c25" d="M863.11,721.66a3.57,3.57,0,1,0,3.57,3.57,3.57,3.57,0,0,0-3.57-3.57" transform="translate(794.75)"/><path class="b39c74fb-a8ec-43bd-9abf-2e6ec5575c25" d="M847.26,726.23a15,15,0,1,0,15,15,15,15,0,0,0-15-15m0,24.58a9.6,9.6,0,1,1,9.59-9.6,9.61,9.61,0,0,1-9.59,9.6" transform="translate(794.75)"/><path class="b39c74fb-a8ec-43bd-9abf-2e6ec5575c25" d="M859.15,771.63H834.86a18.3,18.3,0,0,1-18.27-18.27V729.07a18.3,18.3,0,0,1,18.27-18.27h24.29a18.3,18.3,0,0,1,18.27,18.27v24.29a18.3,18.3,0,0,1-18.27,18.27m-24.29-55.11a12.56,12.56,0,0,0-12.55,12.55v24.29a12.56,12.56,0,0,0,12.55,12.55h24.29a12.56,12.56,0,0,0,12.55-12.55V729.07a12.56,12.56,0,0,0-12.55-12.55Z" transform="translate(794.75)"/></g></svg>