<svg xmlns="http://www.w3.org/2000/svg" viewBox="0 0 32.41 32.56"><defs><style>.cls-1{fill:none;stroke:#ffff01;stroke-miterlimit:10;stroke-width:2px;}.cls-2{fill:#ffff01;}</style></defs><title>Recurso 1</title><g id="Capa_2" data-name="Capa 2"><g id="Capa_1-2" data-name="Capa 1"><path class="cls-1" d="M16.23,1A15.28,15.28,0,1,1,1,16.33,15.24,15.24,0,0,1,16.23,1Z"/><path class="cls-2" d="M18.9,22.43A8.05,8.05,0,0,1,16,25.61a4,4,0,0,1-1.49.46,1.83,1.83,0,0,1-2.11-2.42c.46-1.93,1.07-3.82,1.61-5.73.26-.92.52-1.85.74-2.77.26-1.07,0-1.38-1-1.51a4.1,4.1,0,0,1-.43-.1c.21-.21.33-.44.48-.46,1.65-.27,3.32-.52,5-.76a1.75,1.75,0,0,1,.46,0c-.48,1.65-.93,3.27-1.4,4.88-.52,1.84-1.06,3.67-1.58,5.51a2.71,2.71,0,0,0-.15.74c0,.2.07.49.21.57a.6.6,0,0,0,.59-.08c.48-.48.89-1,1.35-1.51a2,2,0,0,1,.56-.32l.12.27"/><path class="cls-2" d="M18.34,7.78a2.08,2.08,0,1,1-4.15,0,2.08,2.08,0,1,1,4.15,0"/></g></g></svg>