<?xml version="1.0" encoding="utf-8"?>
<!-- Generator: Adobe Illustrator 24.3.0, SVG Export Plug-In . SVG Version: 6.00 Build 0)  -->
<svg version="1.1" id="Capa_1" xmlns="http://www.w3.org/2000/svg" xmlns:xlink="http://www.w3.org/1999/xlink" x="0px" y="0px"
	 viewBox="0 0 33.8 25.9" style="enable-background:new 0 0 33.8 25.9;" xml:space="preserve">
<style type="text/css">
	.st0{fill:#EB008B;}
</style>
<path class="st0" d="M13,15l1.8-1.8L27.2,0.7c0.8-0.9,2.1-1,3-0.2c0.1,0.1,0.2,0.1,0.2,0.2l2.8,2.8C33.8,4.1,34,5,33.7,5.8
	c-0.1,0.3-0.3,0.7-0.6,0.9c-2.5,2.6-5.1,5.1-7.6,7.6L14.6,25.2c-0.8,0.9-2.1,1-3,0.2c-0.1-0.1-0.1-0.1-0.2-0.2L0.8,14.6
	c-0.7-0.6-0.9-1.5-0.7-2.3c0.1-0.3,0.2-0.5,0.4-0.7c1-1.1,2-2.1,3.1-3.1c0.8-0.8,2-0.8,2.8-0.1c0.1,0.1,0.1,0.1,0.2,0.2l5.5,5.5
	L13,15"/>
</svg>
