<svg xmlns="http://www.w3.org/2000/svg" viewBox="0 0 29.8 29.8"><defs><style>.cls-1{fill:#29abe2;}</style></defs><g id="Capa_2" data-name="Capa 2"><g id="ELEGI_TU_CARRERA" data-name="ELEGI TU CARRERA"><path class="cls-1" d="M14.9,29.8A14.9,14.9,0,1,1,29.8,15.19,14.92,14.92,0,0,1,14.9,29.8Zm-13-15A13,13,0,1,0,15.11,1.87,13,13,0,0,0,1.87,14.76Z"/><path class="cls-1" d="M15.84,14V5.6a1,1,0,0,0-.58-.88A1,1,0,0,0,14,5.6q0,4.62,0,9.24a1,1,0,0,0,1,1h7.78a1.18,1.18,0,0,0,.41-.07A.93.93,0,0,0,22.78,14H15.84Z"/><path class="cls-1" d="M15.84,14h6.94a.93.93,0,0,1,.38,1.79,1.18,1.18,0,0,1-.41.07H15a1,1,0,0,1-1-1q0-4.62,0-9.24a1,1,0,0,1,1.29-.88,1,1,0,0,1,.58.88V14Z"/></g></g></svg>