<svg xmlns="http://www.w3.org/2000/svg" viewBox="0 0 32.29 41.1"><defs><style>.b4db417d-a160-41c1-b2f6-937f63475c6a{fill:#eb008b;}</style></defs><title>tutor</title><g id="f288b17a-d5ca-456d-a673-33bd03f3af49" data-name="Capa 2"><g id="a9fcae4d-b784-4740-861b-5fe49d64090b" data-name="Capa 1"><path class="b4db417d-a160-41c1-b2f6-937f63475c6a" d="M14.67,41.1H1.11C.17,41.1,0,40.91,0,40A13.18,13.18,0,0,1,9.23,27.42c6.09-2.05,11.67-1,16.38,3.47a12,12,0,0,1,3.76,9.16c0,.85-.19,1.05-1,1.05Z"/><path class="b4db417d-a160-41c1-b2f6-937f63475c6a" d="M14.67,10.29a7.33,7.33,0,1,1-7.31,7.38,7.3,7.3,0,0,1,7.31-7.38"/><path class="b4db417d-a160-41c1-b2f6-937f63475c6a" d="M15.39,0a17.61,17.61,0,0,1,16.7,14.86,20.23,20.23,0,0,1,.2,2.46c0,.65-.23,1-.69,1s-.72-.33-.73-1a15.45,15.45,0,0,0-3.1-9.24A15.87,15.87,0,0,0,15.19,1.43a4.93,4.93,0,0,1-.55,0A.67.67,0,0,1,14,.66.66.66,0,0,1,14.67,0c.29,0,.59,0,.72,0"/><path class="b4db417d-a160-41c1-b2f6-937f63475c6a" d="M26.42,17v.5c0,.49-.31.83-.72.8a.72.72,0,0,1-.7-.77,18.07,18.07,0,0,0-.21-2A10.29,10.29,0,0,0,15,7.3h-.17c-.53,0-.87-.32-.83-.75s.36-.67.84-.67A11.69,11.69,0,0,1,26.42,17"/></g></g></svg>