<svg xmlns="http://www.w3.org/2000/svg" xmlns:xlink="http://www.w3.org/1999/xlink" viewBox="0 0 562.02 515.43"><defs><style>.b0346e07-ccf4-46fb-a4a5-9bc00e8a4f5b{fill:none;}.a6d2ddd6-40a4-44a1-a55c-f9c8944a3a5c{clip-path:url(#bc3fc788-7fb3-4d30-8f3f-146aa4477577);}.bddf41ed-8a9d-456a-94d8-30a5d0f04efd{fill:#c80186;}</style><clipPath id="bc3fc788-7fb3-4d30-8f3f-146aa4477577" transform="translate(-23.48)"><path id="ff97a608-9480-4400-8a9c-6f53e56d2a48" data-name="SVGID" class="b0346e07-ccf4-46fb-a4a5-9bc00e8a4f5b" d="M127.69,380.65c-260.12,137.71-38.13,156.68-63,142.69,49.7,27.93,90.82,40.29,188.17,9.58,9.45-3,66.27-15.79,139.65-6.89,55,6.67,78.23-7.82,82-26.91,1.93-9.66-1.5-19.66-8.8-27.21-16.46-17-63.53-60.16-138.47-85.18-54.7-18.26-85.17-32-117-32-23.39,0-47.52,7.42-82.54,26"/></clipPath></defs><title>f7</title><g id="b90297cb-139f-4d29-b482-7152f5065a11" data-name="Capa 2"><g id="eb647357-b40e-4277-ba1c-c982a07106b6" data-name="Capa 1"><g class="a6d2ddd6-40a4-44a1-a55c-f9c8944a3a5c"><path class="bddf41ed-8a9d-456a-94d8-30a5d0f04efd" d="M532.68,515.43l-412.39-3.54c0-.05-96.81-.52-96.81-.46V100.83C65.41,23.44,89.06,0,118.23,0H532.68c29.18,0,52.83,23.44,52.83,52.35V463.08c0,28.91-23.65,52.35-52.83,52.35" transform="translate(-23.48)"/></g></g></g></svg>