<svg id="Capa_1" data-name="Capa 1" xmlns="http://www.w3.org/2000/svg" viewBox="0 0 1366 768"><defs><style>.cls-1{fill:#00aef4;}.cls-2,.cls-3,.cls-4,.cls-5{fill:none;}.cls-2{stroke:#00aef4;stroke-width:2px;}.cls-2,.cls-4,.cls-5{stroke-miterlimit:10;}.cls-4{stroke:#eb008b;}.cls-5{stroke:#c80186;}</style></defs><title>Mesa de trabajo 1</title><path class="cls-1" d="M254.63,553.93A18.69,18.69,0,1,1,236,535.25a18.68,18.68,0,0,1,18.68,18.68"/><path class="cls-2" d="M262.78,554.26a26.91,26.91,0,1,1-26.91-26.91A26.91,26.91,0,0,1,262.78,554.26Z"/><rect class="cls-3" x="-486" y="-7057" width="1920" height="7826"/><path class="cls-4" d="M1319.79,639.75c0,290.25-266.83,525.54-596,525.54s-596-235.29-596-525.54c0-98.76,30.9-191.17,84.64-270.1,104.18-153,294.2-255.43,511.35-255.43,216.93,0,406.8,102.19,511,255C1288.77,448.22,1319.79,540.79,1319.79,639.75Z"/><line class="cls-4" x1="213.35" y1="370.75" x2="1234.26" y2="371.31"/><line class="cls-4" x1="341" y1="238.37" x2="1109.17" y2="237.99"/><line class="cls-4" x1="147.13" y1="511.36" x2="1301.53" y2="510.14"/><line class="cls-4" x1="126.89" y1="638.94" x2="1320.71" y2="638.94"/><path class="cls-4" d="M1276.54,639.71c0,289.78-246.34,524.68-550.22,524.68S176.11,929.49,176.11,639.71c0-98.6,28.52-190.85,78.13-269.66,96.18-152.77,271.61-255,472.08-255,200.28,0,375.56,102,471.8,254.55C1247.91,448.5,1276.54,540.92,1276.54,639.71Z"/><path class="cls-4" d="M1175.46,639c0,289.3-205.5,523.83-459,523.83s-459-234.53-459-523.83c0-98.45,23.8-190.55,65.18-269.23,80.24-152.53,226.58-254.61,393.82-254.61,167.06,0,313.28,101.87,393.57,254.15C1151.57,448,1175.46,540.31,1175.46,639Z"/><path class="cls-4" d="M909.32,638.89c-.23,288.31-85.94,522-191.45,521.91S527,927,527.26,638.65c.08-98.11,10.06-189.89,27.35-268.29,33.51-152,94.5-253.66,164.1-253.62S849,218.34,882.31,370.12C899.53,448.63,909.4,540.59,909.32,638.89Z"/><line class="cls-4" x1="717.37" y1="115.03" x2="716.47" y2="1162.78"/><path class="cls-5" d="M1070.83,625.86C1082,914.11,932.4,1152.63,736.71,1158.61S373.34,935.77,362.18,647.52c-3.8-98.08,11-190.41,39.93-269.78,56.05-153.87,165.08-259,294.18-263s245.77,94.1,313.63,243.93C1045,436.21,1067,527.58,1070.83,625.86Z"/><path class="cls-1" d="M1090.53,364.64A18.69,18.69,0,1,1,1071.85,346a18.68,18.68,0,0,1,18.68,18.68"/><path class="cls-2" d="M1098.78,364.26a26.91,26.91,0,1,1-26.91-26.91A26.91,26.91,0,0,1,1098.78,364.26Z"/><path class="cls-1" d="M417.75,255.55a18.69,18.69,0,1,1-18.68-18.68,18.68,18.68,0,0,1,18.68,18.68"/><path class="cls-2" d="M425.78,255.26a26.91,26.91,0,1,1-26.91-26.91A26.91,26.91,0,0,1,425.78,255.26Z"/><path class="cls-1" d="M362.19,625.22a18.69,18.69,0,1,1-18.68-18.68,18.68,18.68,0,0,1,18.68,18.68"/><path class="cls-2" d="M370.78,625.26a26.91,26.91,0,1,1-26.91-26.91A26.91,26.91,0,0,1,370.78,625.26Z"/><path class="cls-1" d="M335.31,402.05a18.69,18.69,0,1,1-18.69-18.69,18.68,18.68,0,0,1,18.69,18.69"/><path class="cls-2" d="M343.78,402.26a26.91,26.91,0,1,1-26.91-26.91A26.91,26.91,0,0,1,343.78,402.26Z"/><path class="cls-1" d="M527.79,383a18.69,18.69,0,1,1-18.69-18.68A18.69,18.69,0,0,1,527.79,383"/><path class="cls-2" d="M535.78,382.26a26.91,26.91,0,1,1-26.91-26.91A26.91,26.91,0,0,1,535.78,382.26Z"/><path class="cls-1" d="M630.85,177.78a18.69,18.69,0,1,1-18.68-18.68,18.68,18.68,0,0,1,18.68,18.68"/><path class="cls-2" d="M638.78,177.26a26.91,26.91,0,1,1-26.91-26.91A26.91,26.91,0,0,1,638.78,177.26Z"/></svg>