<svg xmlns="http://www.w3.org/2000/svg" viewBox="0 0 746.44 1096.1"><defs><style>.cls-1{fill:#00aef4;}.cls-2,.cls-4{fill:none;stroke-miterlimit:10;}.cls-2{stroke:#fff100;stroke-width:4px;}.cls-3{fill:#fff100;}.cls-4{stroke:#00aef4;stroke-width:26px;}.cls-5{fill:#ffda00;}</style></defs><g id="Capa_2" data-name="Capa 2"><g id="Capa_1-2" data-name="Capa 1"><rect class="cls-1" x="31.39" y="532.02" width="95.57" height="28.09" rx="2.45" transform="translate(-171.12 54.33) rotate(-18.73)"/><rect class="cls-1" x="57.28" y="607.54" width="95.57" height="28.09" rx="2.45" transform="translate(-194 66.63) rotate(-18.73)"/><rect class="cls-1" x="6.05" y="575.68" width="136.55" height="28.62" rx="2.45" transform="translate(-185.48 55.1) rotate(-18.73)"/><polygon class="cls-2" points="276.97 551.88 245.69 507.6 319.13 542.99 379.85 489.24 361.62 540.29 353.72 482.57 337.37 543.62 310.08 478.74 300.24 548.69 270.73 495.26 276.97 551.88"/><path class="cls-3" d="M237.63,501.51a3.93,3.93,0,1,1,3.4-4.39,4,4,0,0,1-3.4,4.39m28.08-19.73a3.93,3.93,0,1,0-4.38-3.4,4,4,0,0,0,4.38,3.4m122.38.76a3.93,3.93,0,1,0-4.38-3.41,4,4,0,0,0,4.38,3.41M356,470.4a3.93,3.93,0,1,0-4.39-3.4,4,4,0,0,0,4.39,3.4m-48.15-3.82a3.93,3.93,0,1,0-4.38-3.4,4,4,0,0,0,4.38,3.4"/><path class="cls-3" d="M382.59,167.21l-6.77,11.44c-19.95-13.09-31.64-31.14-33-55.07a67,67,0,0,1,33.69-61.9l6.69,11.93c-17.45,10.64-26.82,26.14-26.9,46.52S365.93,155.86,382.59,167.21Z"/><path class="cls-3" d="M444.77,178.49c-2.27-3.81-4.49-7.56-6.69-11.26,16.67-11.43,26.39-26.82,26.25-47.33S454.51,84.09,437.44,73c2.22-3.73,4.45-7.51,6.77-11.44,20.61,13,32.35,31.35,33.63,55.76C479.29,144.87,463.46,167.48,444.77,178.49Z"/><path class="cls-3" d="M390,85.2l6.81,11.48c-8,5.82-13.28,13.21-13.42,23.37s4.24,17.9,12.78,23.45l-6.74,11.41c-11.27-7.32-18.31-17.38-19.4-30.86C368.63,107.17,376.35,94.69,390,85.2Z"/><path class="cls-3" d="M431.3,154.94l-6.77-11.44c8.55-5.55,13-13.38,12.78-23.5s-5.42-17.5-13.41-23.3c2.22-3.76,4.45-7.53,6.76-11.46,12.11,8.12,19.61,19,20.16,33.73C451.4,134.57,444.21,146.34,431.3,154.94Z"/><path class="cls-1" d="M396.79,120.23A13.54,13.54,0,1,1,410,133.94,13.5,13.5,0,0,1,396.79,120.23Z"/><path class="cls-3" d="M418.36,634.08,280.25,663.81c9.41,9.84,13.22,21.24,10.39,34.46a35.2,35.2,0,0,1-13.77,21.26A36.42,36.42,0,0,1,230,716.66c-12.85-12.23-15.78-33.07-3.07-49.44-12.6-7.09-20-17.66-20.13-32.33s6.91-25.3,19.45-32.83q-46-94.63-92.1-189.4l-2.54.55-37.74,8.12a7.65,7.65,0,0,1-8.17-2.79,7.81,7.81,0,0,1,4.4-12.36c17.08-3.7,34.18-7.35,51.26-11.08,1.56-.34,1.9.52,2.41,1.56,5.67,11.71,11.42,23.38,17,35.13,1,2,1.94,2.41,4.06,1.95q127.61-27.56,255.24-55a28.61,28.61,0,0,1,7.06-.76c10.33.47,17.44,8.2,17.23,18.63-.38,19-.83,38.06-1.25,57.08q-1.12,51-2.26,101.89c-.22,9.9-6,16.88-15.66,18.94q-92.65,19.7-185.32,39.36c-8.64,1.84-14.53,6.78-16.84,15.33-4,15,9.15,28.62,24.5,25.52,5.54-1.11,11.05-2.36,16.58-3.55Q354,631.87,443.83,612.54c16.48-3.55,32.31,3.49,40.29,17.8a36.43,36.43,0,1,1-66,30.46,36,36,0,0,1-.37-24.69C418,635.56,418.09,635,418.36,634.08ZM169.15,448.76c.45,1,.72,1.72,1,2.38q35,72,70,144c1,2,1.93,2.41,4.06,2q46.36-10,92.75-19.79l84.48-17.91c3-.63,3.68-1.42,3.74-4.07q1.73-79.26,3.45-158.52c.06-2.6-.89-3.46-3.5-3.12-.74.09-1.46.28-2.19.43l-250.88,54ZM275.39,685.54a20.82,20.82,0,1,0-40.46,9.87,20.93,20.93,0,0,0,25.57,15.08C271.24,707.69,278.11,696.18,275.39,685.54Zm172.47-57.87a20.77,20.77,0,1,0,24.59,15.65A20.7,20.7,0,0,0,447.86,627.67Z"/><rect class="cls-1" x="391.91" y="176.16" width="32.83" height="71.5"/><rect class="cls-3" x="69.24" y="75.75" width="121" height="96.8" rx="13.5"/><polyline class="cls-3" points="149.26 171.45 172.64 193.45 167.14 163.75"/><rect class="cls-3" x="611.24" y="71.75" width="121" height="96.8" rx="13.5" transform="translate(1343.47 240.3) rotate(-180)"/><polyline class="cls-3" points="652.22 167.45 628.84 189.45 634.34 159.75"/><circle class="cls-1" cx="99.49" cy="124.7" r="7.39"/><circle class="cls-1" cx="128.09" cy="124.7" r="7.39"/><circle class="cls-1" cx="156.69" cy="124.7" r="7.39"/><circle class="cls-1" cx="644.49" cy="991.7" r="7.39"/><circle class="cls-1" cx="673.09" cy="991.7" r="7.39"/><circle class="cls-1" cx="701.69" cy="991.7" r="7.39"/><rect class="cls-3" x="610.24" y="941.87" width="121" height="96.8" rx="13.5"/><polyline class="cls-3" points="651.84 943.7 635.37 916.14 632.53 946.21"/><path class="cls-1" d="M668.59,90.8h8.35c0,1.64,0,3.27,0,4.9,0,1,.32,1.5,1.39,1.75a17.32,17.32,0,0,1,10,6.1L682.21,109c-.78-.73-1.51-1.45-2.28-2.13a9.28,9.28,0,0,0-9-2.34,3.27,3.27,0,0,0-.39,6.34c2.16.68,4.41,1.07,6.6,1.66a36.67,36.67,0,0,1,4.73,1.51c4.34,1.82,6.91,5,7.23,9.82a11.48,11.48,0,0,1-5.8,11.35,23,23,0,0,1-4.91,2,1.69,1.69,0,0,0-1.43,2c.07,1.53,0,3.07,0,4.77h-8.35c0-1.4-.09-2.8,0-4.19s-.3-2.26-2-2.6a18.67,18.67,0,0,1-10.59-6.29c-.27-.32-.49-.68-.83-1.15l6.46-5.8a40.07,40.07,0,0,0,3.06,3.47c2.69,2.4,1.42,3.64,5.1,2.87,2-.42,7.63-1.63,7.8-3.37a3.58,3.58,0,0,0-2.72-3.91c-2.14-.72-4.38-1.18-6.58-1.74-.71-.18-1.44-.31-2.15-.52-5.88-1.76-8.71-5.33-8.77-11-.06-6,2.82-10.12,8.63-11.75,2.08-.59,2.85-1.42,2.55-3.49A27.88,27.88,0,0,1,668.59,90.8Z"/><path class="cls-3" d="M693.35,645.31c-7.14,0-11.8-4.77-11.75-12s4.67-11.83,11.87-11.82,11.92,4.88,11.83,11.94S700.45,645.33,693.35,645.31Zm4-11.91c-.32-1.53-.33-3.19-1-4.46a4.36,4.36,0,0,0-3-2.1,3.78,3.78,0,0,0-2.84,2,11.07,11.07,0,0,0,0,9.17,4.54,4.54,0,0,0,2.87,2,2.63,2.63,0,0,0,3-2.09C696.87,636.49,697.05,635,697.37,633.4Z"/><path class="cls-3" d="M732.57,656.46c-.08,7.22-4.73,11.79-12,11.73s-11.79-4.89-11.72-12,4.92-11.82,12-11.75S732.65,649.23,732.57,656.46Zm-15.71-.28c.29,1.55.27,3.21.94,4.51a4.26,4.26,0,0,0,2.93,2.18,4,4,0,0,0,3-2.07,12,12,0,0,0,.08-9,3.18,3.18,0,0,0-6.06.07A40,40,0,0,0,716.86,656.18Z"/><path class="cls-3" d="M689.67,665.33c.47-.79.75-1.31,1.08-1.8q13.46-19.85,26.91-39.69a2.75,2.75,0,0,1,2.78-1.47c1.26.12,2.53,0,4.12,0-.52.83-.88,1.44-1.28,2-8.67,12.79-17.39,25.54-26,38.38-1.27,1.9-2.58,2.9-4.86,2.55A19.19,19.19,0,0,0,689.67,665.33Z"/><path class="cls-1" d="M117.35,283.31c-7.14,0-11.8-4.77-11.75-12s4.67-11.83,11.87-11.82,11.92,4.88,11.83,11.94S124.45,283.33,117.35,283.31Zm4-11.91c-.32-1.53-.33-3.19-1-4.46a4.36,4.36,0,0,0-3-2.1,3.78,3.78,0,0,0-2.84,2,11.07,11.07,0,0,0,0,9.17,4.54,4.54,0,0,0,2.87,2,2.63,2.63,0,0,0,3-2.09C120.87,274.49,121.05,273,121.37,271.4Z"/><path class="cls-1" d="M156.57,292.46c-.08,7.22-4.73,11.79-11.95,11.73s-11.79-4.89-11.72-12,4.92-11.82,12-11.75S156.65,285.23,156.57,292.46Zm-15.71-.28c.29,1.55.27,3.21.94,4.51a4.26,4.26,0,0,0,2.93,2.18,4,4,0,0,0,3-2.07,12,12,0,0,0,.08-9,3.18,3.18,0,0,0-6.06.07A40,40,0,0,0,140.86,292.18Z"/><path class="cls-1" d="M113.67,303.33c.47-.79.75-1.31,1.08-1.8q13.45-19.84,26.91-39.69a2.75,2.75,0,0,1,2.78-1.47c1.26.12,2.53,0,4.12,0-.52.83-.88,1.44-1.28,2-8.67,12.79-17.39,25.54-26,38.38-1.27,1.9-2.58,2.9-4.86,2.55A19.19,19.19,0,0,0,113.67,303.33Z"/><rect class="cls-3" x="247.74" y="241.1" width="342" height="66"/><rect class="cls-3" x="253.74" y="822.1" width="342" height="66" rx="9.35"/><path class="cls-4" d="M247.49,391.1V278.66a51.35,51.35,0,0,1,51.36-51.36H549.63A51.36,51.36,0,0,1,601,278.66V839.54a51.36,51.36,0,0,1-51.36,51.36H298.85a51.35,51.35,0,0,1-51.36-51.36V740.9"/><path class="cls-3" d="M84.44,863.52c-1,2.71-3,4-5.68,4.71-11.52,3-23,6.13-34.52,9.11a8.37,8.37,0,0,1-4.1,0c-11.72-3-23.4-6.2-35.09-9.32-3.51-.93-5-2.85-5-6.42q0-20.2,0-40.41c0-3.6,1.51-5.55,5-6.48,11.63-3.11,23.24-6.25,34.9-9.26a9.75,9.75,0,0,1,4.68,0c11.4,3,22.74,6.08,34.14,9,2.72.71,4.72,2,5.72,4.66Zm-45.09,8a10.66,10.66,0,0,0,.15-1.17c0-11.8,0-23.59,0-35.39,0-1.18-.44-1.58-1.52-1.87-7.91-2.07-15.8-4.22-23.7-6.34-2.84-.76-5.69-1.5-8.6-2.27v38.13Zm17-41.12c-3.33.92-6.44,1.89-9.6,2.6-1.51.34-1.82,1-1.82,2.46,0,11.34,0,22.67,0,34,0,.64.07,1.27.13,2.08l33.66-8.93V824.42c-3.32.88-6.5,1.82-9.72,2.55-1.31.29-1.53.91-1.51,2.06,0,3.53,0,7.07,0,10.6,0,.55-.31,1.48-.67,1.59-3.4,1-6.84,1.87-10.5,2.85ZM6.23,818.65l0,.33,35.05,9.31a2.51,2.51,0,0,0,1.16.16c4.39-1.14,8.77-2.32,13.66-3.62-.83-.31-1.11-.44-1.41-.52-9.57-2.55-19.21-4.88-28.7-7.71a19.28,19.28,0,0,0-12.79.09C11,817.53,8.57,818,6.23,818.65Zm25.42-6.8-.09.36L67,821.63a2,2,0,0,0,1,.06c3.42-.89,6.83-1.81,10.44-2.77a3.57,3.57,0,0,0-.72-.46L43,809.21a2.38,2.38,0,0,0-1.18-.06C38.43,810,35,810.94,31.65,811.85Z"/><path class="cls-1" d="M746.44,440.52c-1,2.71-3,4-5.68,4.71-11.52,3-23,6.13-34.52,9.11a8.37,8.37,0,0,1-4.1,0c-11.72-3.05-23.4-6.2-35.09-9.32-3.51-.93-5-2.85-5-6.42q0-20.21,0-40.41c0-3.6,1.51-5.55,5-6.48,11.63-3.11,23.24-6.25,34.9-9.26a9.75,9.75,0,0,1,4.68,0c11.4,3,22.74,6.08,34.14,9,2.72.71,4.72,2,5.72,4.66Zm-45.09,8a10.66,10.66,0,0,0,.15-1.17c0-11.8,0-23.59,0-35.39,0-1.18-.44-1.58-1.52-1.87-7.91-2.07-15.8-4.22-23.7-6.34-2.84-.76-5.69-1.5-8.6-2.27v38.13Zm17-41.12c-3.33.92-6.44,1.89-9.6,2.6-1.51.34-1.82,1.05-1.82,2.46.05,11.34,0,22.67,0,34,0,.64.07,1.27.13,2.08l33.66-8.93V401.42c-3.32.88-6.5,1.82-9.72,2.55-1.31.29-1.53.91-1.51,2.06.05,3.53.05,7.07,0,10.6,0,.55-.31,1.48-.67,1.59-3.4,1-6.84,1.87-10.5,2.85Zm-50.12-11.71,0,.33,35.05,9.31a2.51,2.51,0,0,0,1.16.16c4.39-1.14,8.77-2.32,13.66-3.62-.83-.31-1.11-.44-1.41-.52-9.57-2.55-19.21-4.88-28.7-7.71a19.28,19.28,0,0,0-12.79.09C673,394.53,670.57,395,668.23,395.65Zm25.42-6.8-.09.36,35.4,9.42a2,2,0,0,0,1,.06c3.42-.89,6.83-1.81,10.44-2.77a3.57,3.57,0,0,0-.72-.46L705,386.21a2.38,2.38,0,0,0-1.18-.06C700.43,387,697,387.94,693.65,388.85Z"/><polygon class="cls-1" points="701.74 723 701.74 764.14 734.41 743.57 701.74 723"/><polygon class="cls-1" points="259.74 0 259.74 41.14 292.41 20.57 259.74 0"/><path class="cls-1" d="M164,1079.1c-3.31-1.34-4.28-3.77-3.9-7.26,1.46-13.59,2.75-27.19,4.1-40.78.9-9.06,1.78-18.13,2.69-27.19a24.46,24.46,0,0,1,.49-3.31,5.14,5.14,0,0,1,4.94-4.14c3.52-.11,7-.14,10.55,0,.75,0,1.46,1.06,2.18,1.62-.77.61-1.51,1.68-2.33,1.74a67.16,67.16,0,0,1-8.63.05c-2.26-.11-3.29.55-3.51,3-1.14,12.49-2.44,25-3.7,37.44-1.05,10.34-2.08,20.67-3.19,31-.41,3.87-.11,4.3,3.8,4.3h85.65c3.92,0,4.21-.43,3.81-4.3-1.43-13.83-2.79-27.66-4.18-41.49-.93-9.14-1.9-18.28-2.77-27.42-.19-2-1.11-2.58-3-2.52-2.88.1-5.76,0-8.64,0-1.36,0-2.75-.08-2.76-1.84s1.37-1.69,2.61-1.69c3.12,0,6.24,0,9.36,0,3.42,0,5.41,1.68,5.79,5.13,1,9,1.89,18,2.79,26.93q2.06,20.5,4.08,41c.08.79.1,1.6.25,2.38.65,3.47-.58,5.91-3.87,7.26Z"/><path class="cls-1" d="M212.91,971.1c3.28,1.35,6.88,2.23,9.79,4.14a19.49,19.49,0,0,1,9,16.34c.19,5.51.08,11,.09,16.54,0,1.15,0,2.38-1.62,2.42s-1.92-1.1-1.92-2.43c0-5.2,0-10.39,0-15.59a18,18,0,0,0-36,0c0,5.12,0,10.24,0,15.35,0,1.37-.12,2.72-1.92,2.67s-1.61-1.47-1.62-2.65c0-5.12-.09-10.24,0-15.35.28-10.94,7.27-19.06,18-21.08a4.25,4.25,0,0,0,.86-.36Z"/><path class="cls-1" d="M210.39,996.37c3.83,0,7.67,0,11.5,0,1.2,0,2.59-.1,2.62,1.67s-1.19,1.86-2.49,1.86h-23.5c-1.3,0-2.51-.2-2.49-1.86s1.41-1.66,2.61-1.67C202.55,996.35,206.47,996.37,210.39,996.37Z"/><path class="cls-5" d="M437.5,1096.1c-1.21-.59-2.42-1.17-3.62-1.78a81.29,81.29,0,0,1-13.24-8.35,49.26,49.26,0,0,1-6.48-5.94,26.5,26.5,0,0,1-6-9.86,38,38,0,0,1-1-4.74c-.26-1.54-.42-3.09-.57-4.65s-.28-3.26-.37-4.89c-.13-2.34-.3-4.69-.31-7,0-4.67,0-9.34.05-14,0-2,.1-4,.18-6,.07-1.66.18-3.32.27-5,12.54,3.39,22.83-.18,31.16-10,.52.59,1,1.2,1.6,1.79a28.33,28.33,0,0,0,15,8.83,27.7,27.7,0,0,0,8.07.56,25.79,25.79,0,0,0,6.1-1.16c.1,0,.21-.06.35-.1,0,.57.09,1.11.11,1.65.12,3.12.29,6.23.34,9.35.07,4.69.11,9.38.06,14.06,0,2.73-.22,5.45-.39,8.17-.15,2.2-.34,4.4-.6,6.59a31.27,31.27,0,0,1-1.52,7.47,26.93,26.93,0,0,1-4.32,7.35,48.61,48.61,0,0,1-9,8.46,86.3,86.3,0,0,1-14.77,8.79l-.93.45Zm-24.25-62.92c0,.15,0,.25,0,.34,0,2,.05,4,.13,6,.15,4.14.3,8.27.53,12.41.14,2.35.41,4.7.66,7a60.74,60.74,0,0,0,1.36,7.81,18.8,18.8,0,0,0,2.29,6,28.67,28.67,0,0,0,6.6,6.9,62.3,62.3,0,0,0,12.45,7.45.86.86,0,0,0,.65,0c1.63-.8,3.26-1.58,4.84-2.46a46.26,46.26,0,0,0,11.84-8.86,16.54,16.54,0,0,0,3.85-6.15,49.52,49.52,0,0,0,2-9.16c.35-2.61.62-5.24.83-7.87s.33-5.19.42-7.79c.11-3.13.15-6.26.21-9.4,0-.72,0-1.44,0-2.18l-.15,0a43,43,0,0,1-8.09-.59A31.24,31.24,0,0,1,445,1030a17.33,17.33,0,0,1-5.92-4.43c-.52-.63-1-1.3-1.49-1.95l-.07.08a16.82,16.82,0,0,1-7.39,6.35,36,36,0,0,1-14.33,3.17C415,1033.21,414.13,1033.18,413.25,1033.18Z"/><path class="cls-5" d="M434.27,1070.83l-14.14-11.4,4.1-5.08,9.42,7.59,16.52-18.51,4.84,4.32C453.9,1049.26,434.84,1070.48,434.27,1070.83Z"/><circle class="cls-1" cx="642.03" cy="995.8" r="7.39"/><circle class="cls-1" cx="670.63" cy="995.8" r="7.39"/><circle class="cls-1" cx="699.23" cy="995.8" r="7.39"/></g></g></svg>