<svg xmlns="http://www.w3.org/2000/svg" viewBox="0 0 485.37 118.52"><defs><style>.cls-1{fill:#fdff00;}.cls-2{fill:#fff100;}.cls-3{fill:none;stroke:#fff100;stroke-miterlimit:10;}</style></defs><title>logo</title><g id="Capa_2" data-name="Capa 2"><g id="Capa_1-2" data-name="Capa 1"><rect class="cls-1" x="324.54" y="35.11" width="1.36" height="83.41"/><path class="cls-1" d="M327.88,76.81q19.35-.12,38.64,0"/><rect class="cls-1" x="323.72" y="75.73" width="42.79" height="2.17"/><path class="cls-1" d="M327.84,73.72c4.79-4.92,9.73-10.07,14.56-14.89"/><polygon class="cls-1" points="323.72 79.48 343.18 59.59 341.63 58.07 323.72 76.37 323.72 79.48"/><path class="cls-1" d="M327.88,79.88c5,4.79,9.69,9.72,14.72,14.72"/><polygon class="cls-1" points="323.72 74.19 323.72 77.26 341.83 95.37 343.37 93.83 323.72 74.19"/><polygon class="cls-1" points="403.76 58.53 416.72 58.53 416.72 61.28 406.51 61.28 406.51 68.26 414.87 68.26 414.87 71.01 406.51 71.01 406.51 80.74 403.76 80.74 403.76 58.53"/><path class="cls-1" d="M432.22,70.44v10.3h-2.43V78.15a6.85,6.85,0,0,1-6.17,3c-3.74,0-5.66-2.28-5.66-5s1.55-4.15,4.08-4.89a69,69,0,0,1,7.48-1.25c-.07-2.65-1.21-3.92-4.1-3.92a4,4,0,0,0-4.24,2.92l-2.61-.79c.79-2.92,3.12-4.69,6.88-4.69,3,0,5.28,1.08,6.23,3.25a8.68,8.68,0,0,1,.54,3.57m-3,4.62a10.81,10.81,0,0,0,.27-2.62,47.49,47.49,0,0,0-6.21,1c-1.38.43-2.59,1.18-2.59,2.74,0,1.37,1,2.69,3.34,2.69a4.93,4.93,0,0,0,5.19-3.85"/><path class="cls-1" d="M444.83,64.08v2.58a4.63,4.63,0,0,0-3.81.63c-1.62,1.16-2,3.12-2,5.09v8.36h-2.76V64.08h2.45v2.64a5.08,5.08,0,0,1,1.42-1.62,6,6,0,0,1,4.72-1"/><path class="cls-1" d="M446.53,72.4c0-5.23,3.13-8.78,8-8.78s8,3.63,8,8.78-3.08,8.8-8,8.8-8-3.64-8-8.8m13.14,0c0-3.75-1.72-6.17-5.12-6.17s-5.11,2.53-5.11,6.17,1.74,6.2,5.11,6.2,5.12-2.53,5.12-6.2"/><polygon class="cls-1" points="403.34 87.57 404.77 87.57 404.77 95.81 415.13 95.81 415.13 87.57 416.57 87.57 416.57 105.45 415.13 105.45 415.13 97.21 404.77 97.21 404.77 105.45 403.34 105.45 403.34 87.57"/><path class="cls-1" d="M419.3,98.72c0-4.21,2.34-7,6.25-7s6.25,2.9,6.25,7-2.29,7.1-6.25,7.1-6.25-2.93-6.25-7.1m11,0c0-3.44-1.58-5.66-4.72-5.66s-4.72,2.33-4.72,5.66,1.62,5.71,4.72,5.71,4.72-2.32,4.72-5.71"/><rect class="cls-1" x="434.78" y="87.2" width="1.43" height="18.25"/><path class="cls-1" d="M451,87.57v17.88h-1.3v-2.27a5.08,5.08,0,0,1-4.57,2.64c-3.79,0-5.9-3.08-5.9-7.1s2.11-7,5.76-7a5.17,5.17,0,0,1,4.58,2.41V87.57Zm-1.3,11.15c0-3.32-1.5-5.69-4.46-5.69s-4.48,2.46-4.48,5.69,1.5,5.74,4.45,5.74,4.49-2.45,4.49-5.74"/><path class="cls-1" d="M454.69,87.51h1.43v1.82h-1.43Zm0,4.53h1.43v13.41h-1.43Z"/><path class="cls-1" d="M471.11,98.11v7.34h-1.44v-7c0-3.39-1.34-5.36-4.15-5.36s-4.23,2.15-4.23,5.1v7.24h-1.44V92h1.3v2a5.11,5.11,0,0,1,4.56-2.32c3.7,0,5.4,2.88,5.4,6.38"/><path class="cls-1" d="M485.37,92V105a14.59,14.59,0,0,1-.14,2.23c-.43,3.12-2.3,4.57-5.67,4.57a5.77,5.77,0,0,1-5.28-3l1.29-.77a4.28,4.28,0,0,0,4,2.31c3.25,0,4.36-1.83,4.35-5.38v-1.55a5.08,5.08,0,0,1-4.43,2.39c-3.78,0-5.89-3.08-5.89-7.1s2.11-7,5.76-7a5.19,5.19,0,0,1,4.7,2.6V92Zm-1.31,6.68c0-3.32-1.5-5.69-4.45-5.69s-4.49,2.46-4.49,5.69,1.51,5.74,4.46,5.74,4.48-2.45,4.48-5.74"/><path class="cls-1" d="M404.28,41.84h3.57a3.42,3.42,0,0,1,.62.06,2.58,2.58,0,0,1,1.2.5,2.75,2.75,0,0,1,.81,1,3.28,3.28,0,0,1,.28,1.34,3.23,3.23,0,0,1-.28,1.33,2.6,2.6,0,0,1-.81,1,2.5,2.5,0,0,1-1.2.51,3.42,3.42,0,0,1-.62.06h-3v3.87h-.57Zm3.57,5.25a3.81,3.81,0,0,0,.59-.05,2,2,0,0,0,.93-.44,2,2,0,0,0,.58-.81,2.8,2.8,0,0,0,0-2.08,2,2,0,0,0-.58-.81,1.92,1.92,0,0,0-.93-.44,2.88,2.88,0,0,0-.59-.05h-3v4.68Z"/><path class="cls-1" d="M415,51.73a3.27,3.27,0,0,1-1.8-.48,3,3,0,0,1-1.13-1.36,4.87,4.87,0,0,1-.39-2,4.79,4.79,0,0,1,.39-2,3,3,0,0,1,1.15-1.34,3.22,3.22,0,0,1,1.78-.48,3.31,3.31,0,0,1,1.82.48A3.07,3.07,0,0,1,418,45.89a5.44,5.44,0,0,1,0,4,3,3,0,0,1-1.13,1.35A3.39,3.39,0,0,1,415,51.73Zm0-.56a2.68,2.68,0,0,0,1.51-.41,2.39,2.39,0,0,0,.91-1.15,4.57,4.57,0,0,0,.3-1.73,3.71,3.71,0,0,0-.69-2.38,2.44,2.44,0,0,0-2-.87,2.6,2.6,0,0,0-1.51.41,2.45,2.45,0,0,0-.9,1.14,4.45,4.45,0,0,0-.3,1.7,4.4,4.4,0,0,0,.31,1.74,2.5,2.5,0,0,0,.91,1.15A2.74,2.74,0,0,0,415,51.17Z"/><path class="cls-1" d="M418.9,44.26h.59l1.93,6.3,1.92-6.3h.6l1.92,6.3,1.94-6.3h.58l-2.22,7.27h-.6l-1.92-6.31-1.93,6.31h-.59Z"/><path class="cls-1" d="M432.25,51.73a3.29,3.29,0,0,1-1.77-.46,3,3,0,0,1-1.15-1.33,5.43,5.43,0,0,1,0-4.09,3,3,0,0,1,1.15-1.33,3.35,3.35,0,0,1,1.77-.46,3.28,3.28,0,0,1,1.78.47,3,3,0,0,1,1.14,1.37,5.41,5.41,0,0,1,.39,2.16H435v-.19a4.84,4.84,0,0,0-.35-1.77,2.44,2.44,0,0,0-.92-1.1,2.66,2.66,0,0,0-1.44-.37,2.71,2.71,0,0,0-1.46.38,2.54,2.54,0,0,0-.94,1.12,5,5,0,0,0,0,3.53,2.48,2.48,0,0,0,.94,1.12,2.63,2.63,0,0,0,1.46.39,2.85,2.85,0,0,0,2.67-1.64l.47.27a3.54,3.54,0,0,1-.76,1.05,3.2,3.2,0,0,1-1.07.66A3.71,3.71,0,0,1,432.25,51.73Zm-3-4.24h5.92v.57h-5.92Z"/><path class="cls-1" d="M437,44.26h.53V46l-.18-.23a3.45,3.45,0,0,1,.28-.54,2.72,2.72,0,0,1,.36-.43,2,2,0,0,1,.69-.43,2.37,2.37,0,0,1,.82-.18,2.11,2.11,0,0,1,.73.07v.54a2.82,2.82,0,0,0-1,0,1.74,1.74,0,0,0-.89.46,2,2,0,0,0-.53.78,3.17,3.17,0,0,0-.2.89c0,.29,0,.64,0,1.05v3.58H437Z"/><path class="cls-1" d="M444.34,51.73a3.29,3.29,0,0,1-1.77-.46,2.94,2.94,0,0,1-1.15-1.33,5.43,5.43,0,0,1,0-4.09,2.92,2.92,0,0,1,1.14-1.33,3.39,3.39,0,0,1,1.78-.46,3.3,3.3,0,0,1,1.78.47,3,3,0,0,1,1.14,1.37,5.41,5.41,0,0,1,.39,2.16H447v-.19a4.65,4.65,0,0,0-.34-1.77,2.44,2.44,0,0,0-.92-1.1,2.66,2.66,0,0,0-1.44-.37,2.77,2.77,0,0,0-1.47.38,2.45,2.45,0,0,0-.93,1.12,5,5,0,0,0,0,3.53,2.4,2.4,0,0,0,.93,1.12,2.69,2.69,0,0,0,1.47.39,3,3,0,0,0,1.58-.42A2.93,2.93,0,0,0,447,49.53l.48.27a3.57,3.57,0,0,1-.77,1.05,3.06,3.06,0,0,1-1.06.66A3.71,3.71,0,0,1,444.34,51.73Zm-3-4.24h5.92v.57h-5.92Z"/><path class="cls-1" d="M451.89,51.73a3,3,0,0,1-1.72-.49,3.19,3.19,0,0,1-1.08-1.38,5.14,5.14,0,0,1-.36-2,5.06,5.06,0,0,1,.36-2,3.16,3.16,0,0,1,1.05-1.37,2.75,2.75,0,0,1,1.64-.5,2.89,2.89,0,0,1,1.7.49,3.06,3.06,0,0,1,1.07,1.35,5.14,5.14,0,0,1,.36,2,5.09,5.09,0,0,1-.36,2,3.24,3.24,0,0,1-1,1.38A2.64,2.64,0,0,1,451.89,51.73Zm0-.56a2.29,2.29,0,0,0,1.41-.43,2.59,2.59,0,0,0,.88-1.16,4.52,4.52,0,0,0,.29-1.7,4.44,4.44,0,0,0-.29-1.69A2.56,2.56,0,0,0,453.3,45a2.65,2.65,0,0,0-2.83,0,2.47,2.47,0,0,0-.85,1.16,4.62,4.62,0,0,0-.29,1.68,4.52,4.52,0,0,0,.3,1.7,2.55,2.55,0,0,0,.86,1.16A2.26,2.26,0,0,0,451.89,51.17Zm2.58-5.36h0v-4H455v9.69h-.53Z"/><path class="cls-1" d="M459.58,41.84h.56v4h0v5.72h-.52Zm3.1,9.89a2.59,2.59,0,0,1-1.61-.5,3.09,3.09,0,0,1-1-1.38,5.09,5.09,0,0,1-.36-2,5.14,5.14,0,0,1,.36-2,3.06,3.06,0,0,1,1.07-1.35,2.86,2.86,0,0,1,1.69-.49,2.75,2.75,0,0,1,1.64.5,3.16,3.16,0,0,1,1.05,1.37,4.88,4.88,0,0,1,.37,2,5,5,0,0,1-.37,2,3,3,0,0,1-1.08,1.38A2.93,2.93,0,0,1,462.68,51.73Zm0-.56a2.24,2.24,0,0,0,1.4-.43,2.64,2.64,0,0,0,.87-1.16,4.73,4.73,0,0,0,.29-1.7A4.62,4.62,0,0,0,465,46.2,2.55,2.55,0,0,0,464.1,45a2.38,2.38,0,0,0-1.42-.41,2.42,2.42,0,0,0-1.41.41,2.54,2.54,0,0,0-.87,1.15,4.43,4.43,0,0,0-.3,1.69,4.52,4.52,0,0,0,.3,1.7,2.57,2.57,0,0,0,.87,1.16A2.29,2.29,0,0,0,462.68,51.17Z"/><path class="cls-1" d="M469.58,51V52.1l-3.19-7.84H467l2.85,7.06h-.43L472,44.26h.6l-3.8,10.5h-.64Z"/><path class="cls-2" d="M27.56,109.89a4.24,4.24,0,0,1-.64,2.66,2.6,2.6,0,0,1-2.16.79H7.63a2.6,2.6,0,0,1-2.16-.79,4.3,4.3,0,0,1-.64-2.66V59a10.52,10.52,0,0,0-.76-4.62,8.89,8.89,0,0,0-3.22-3,2.26,2.26,0,0,1-.72-.64A1.35,1.35,0,0,1,0,50.06V48.88a.89.89,0,0,1,1-1H32.65q11.1,0,16.4,4.14t5.3,12.69a14.71,14.71,0,0,1-3.64,9.74,15,15,0,0,1-9.08,5.32Q55.21,80.56,55.2,96v6.2a10.49,10.49,0,0,0,.77,4.62,8.81,8.81,0,0,0,3.22,3,2.52,2.52,0,0,1,.72.64,1.48,1.48,0,0,1,.13.64v1.18a.89.89,0,0,1-1,1H33.58a2.6,2.6,0,0,1-2.16-.79,4.24,4.24,0,0,1-.64-2.66V84.7c0-1.64-.71-2.46-2.12-2.46h-1.1Zm1.1-32.08c1.41,0,2.12-.82,2.12-2.46V55.08a3.36,3.36,0,0,0-.42-1.77,1.34,1.34,0,0,0-1.19-.69,1.79,1.79,0,0,0-1.61.78V77.81ZM85,48.68a4.33,4.33,0,0,1,.63,2.66v56c0,1.76.54,2.65,1.61,2.65s1.61-.89,1.61-2.65v-56a4.32,4.32,0,0,1,.64-2.66,2.65,2.65,0,0,1,2.16-.79H110.4a2.9,2.9,0,0,1,2.21.74,3.52,3.52,0,0,1,.68,2.41V86.37q0,14.17-6.58,21.41T87.25,115q-12.8,0-19.41-7.23T61.22,86.37V59.11a13.47,13.47,0,0,0-.34-3.59,5.45,5.45,0,0,0-1.18-2.07,24.55,24.55,0,0,0-2.89-2.51,1,1,0,0,1-.42-.88V48.88a.89.89,0,0,1,1-1H82.84a2.67,2.67,0,0,1,2.17.79m70.72,0a4.33,4.33,0,0,1,.63,2.66V91.59q0,10.62-5.55,17T135.92,115a22.59,22.59,0,0,1-9.79-2.07,16.49,16.49,0,0,1-6.91-6,15.86,15.86,0,0,1-2.54-8.91,14.34,14.34,0,0,1,14.83-14.86A13.83,13.83,0,0,1,141.61,87a13.05,13.05,0,0,1,3.81,9.74,10.69,10.69,0,0,1-2.84,7.88,10.57,10.57,0,0,1-7.84,2.85,1.93,1.93,0,0,0-.51,1.28c0,1.05.68,1.58,2,1.58a11,11,0,0,0,8.65-3.89,14.64,14.64,0,0,0,3.39-10,15.48,15.48,0,0,0-3.05-9.64,17.38,17.38,0,0,0-8.82-5.91,4.33,4.33,0,0,1-2.29-1.42,4.61,4.61,0,0,1-.68-2.71V59a14,14,0,0,0-.33-3.64,5.21,5.21,0,0,0-1.23-2,25.21,25.21,0,0,0-2.84-2.42,1,1,0,0,1-.43-.88V48.88a.89.89,0,0,1,1-1h23.91a2.67,2.67,0,0,1,2.17.79m27.42,48,2.46,11a17.12,17.12,0,0,1,.51,3.15c0,1.64-.87,2.46-2.63,2.46H161.36a3.36,3.36,0,0,1-2.58-.94,3.58,3.58,0,0,1-.89-2.6q0-2.26,3.9-13.78T175,59.31a7.21,7.21,0,0,0,.51-2.46A5.4,5.4,0,0,0,174.8,54a10.69,10.69,0,0,0-2.67-2.65,1.65,1.65,0,0,1-.85-1.28V48.88a.89.89,0,0,1,1-1H192a7.49,7.49,0,0,1,4.54,1.28,8,8,0,0,1,2.67,4.14l16.37,50a25.66,25.66,0,0,1,1.61,6.89c0,2.1-.93,3.15-2.8,3.15H193.08a3.35,3.35,0,0,1-2.59-.89,8.19,8.19,0,0,1-1.4-3.54l-2.8-12.21Zm2.12-4.62-5.93-26.47a1.37,1.37,0,0,0-1.1-.49,1.45,1.45,0,0,0-1.11.44,1.56,1.56,0,0,0-.42,1.13,6.1,6.1,0,0,0,.08.89c.06.33.15.72.26,1.18l5.09,23.32Zm81.07,1.58a1.25,1.25,0,0,0,.93-.45,1.56,1.56,0,0,0,.42-1.13,6.24,6.24,0,0,0-.93-3l-19.5-37.4a9.53,9.53,0,0,1-.55-1.13,2.32,2.32,0,0,1-.13-.84v-.59a1.53,1.53,0,0,1,.25-1,1.23,1.23,0,0,1,.85-.25h21.71a2.63,2.63,0,0,1,2.16.79,4.26,4.26,0,0,1,.64,2.66v58.55a4.24,4.24,0,0,1-.64,2.66,2.6,2.6,0,0,1-2.16.79H258.54a10.37,10.37,0,0,1-6.11-1.58A16.38,16.38,0,0,1,248,106L228.09,67.77a1.81,1.81,0,0,0-.76-.19,1.41,1.41,0,0,0-1,.44,1.5,1.5,0,0,0-.47,1.13,7.22,7.22,0,0,0,.93,2.95l19.51,37.4c.28.53.46.9.55,1.13a2.57,2.57,0,0,1,.12.84v.59a1.72,1.72,0,0,1-.21,1,1,1,0,0,1-.89.3H224.2a2.64,2.64,0,0,1-2.17-.79,4.31,4.31,0,0,1-.63-2.66V59.11a13.91,13.91,0,0,0-.34-3.59,5.48,5.48,0,0,0-1.19-2.07A25.12,25.12,0,0,0,217,50.94a1,1,0,0,1-.43-.88V48.88a.89.89,0,0,1,1-1h17.47a10.33,10.33,0,0,1,6.1,1.58,16.34,16.34,0,0,1,4.41,5.81l19.93,38.18a2,2,0,0,0,.85.2"/><polygon class="cls-3" points="66.96 41.1 55.13 18.91 86.87 39.45 117.93 18.24 106.58 40.68 106.29 13.66 95.22 40.8 86.43 9.37 77.85 40.98 67.37 14.68 66.96 41.1"/><path class="cls-2" d="M51.78,15.64A1.85,1.85,0,0,1,50,13.82,1.83,1.83,0,0,1,51.78,12a1.82,1.82,0,0,1,0,3.64M65.84,8.19a1.83,1.83,0,0,0,1.82-1.82,1.82,1.82,0,1,0-3.64,0,1.85,1.85,0,0,0,1.82,1.82m56.27,7.45a1.82,1.82,0,1,0-1.82-1.82,1.85,1.85,0,0,0,1.82,1.82M108,8.19a1.83,1.83,0,0,0,1.82-1.82,1.82,1.82,0,1,0-3.64,0A1.85,1.85,0,0,0,108,8.19M86.11,3.64a1.83,1.83,0,0,0,1.82-1.82,1.82,1.82,0,0,0-3.64,0,1.85,1.85,0,0,0,1.82,1.82"/></g></g></svg>