<svg xmlns="http://www.w3.org/2000/svg" xmlns:xlink="http://www.w3.org/1999/xlink" viewBox="0 0 609.1 609.1"><defs><style>.cls-1{fill:#29abe2;}.cls-2{clip-path:url(#clip-path);}</style><clipPath id="clip-path" transform="translate(94.57 306.18)"><path class="cls-1" d="M454,117.8c.75-10.41-4.17-20.46-12.84-27.43-19.6-15.71-74.76-54.83-156.83-71.21C180.47-1.59,155-17.8,73.85,39.15s-93,139.73-47.38,158.29c55.93,22.77,100.77,30.34,199-14.82,9.53-4.38,67.56-25.35,145.84-25.7C430,156.66,452.52,138.36,454,117.8Z"/></clipPath></defs><g id="Capa_2" data-name="Capa 2"><g id="Capa_1-2" data-name="Capa 1"><g id="Capa_2-2" data-name="Capa 2"><g id="BODY"><path class="cls-1" d="M454,117.8c.75-10.41-4.17-20.46-12.84-27.43-19.6-15.71-74.76-54.83-156.83-71.21C180.47-1.59,155-17.8,73.85,39.15s-93,139.73-47.38,158.29c55.93,22.77,100.77,30.34,199-14.82,9.53-4.38,67.56-25.35,145.84-25.7C430,156.66,452.52,138.36,454,117.8Z" transform="translate(94.57 306.18)"/><g class="cls-2"><rect class="cls-1" x="-65.94" y="-277.55" width="551.84" height="551.84" rx="31.24" transform="translate(96.42 332.38) rotate(-7.17)"/></g></g></g></g></g></svg>