<svg id="Capa_1" data-name="Capa 1" xmlns="http://www.w3.org/2000/svg" xmlns:xlink="http://www.w3.org/1999/xlink" viewBox="0 0 1264.48 1535.28"><defs><style>.cls-1{fill:none;}.cls-2{clip-path:url(#clip-path);}.cls-3{fill:#66a8de;}</style><clipPath id="clip-path" transform="translate(826.25 79.36)"><rect id="SVGID" class="cls-1" width="438.5" height="1492"/></clipPath></defs><title>fuegoCelesteT</title><g class="cls-2"><path class="cls-3" d="M293.88,954.75a361.76,361.76,0,0,1-99.59-39.56c-52.46-30.1-105.1-42.26-159.16-37.25C-14.81,882.56-61,895.28-113,889.82c-61.49-6.46-125.1-32.2-181.36-68.62,43,17.21,87.57,20.68,131.54,29.53,46.6,9.38,78.24-8.41,118-25,64.9-27.07,133.92,30.55,201.35,30.15-51.68-41-98.44-96.73-159.8-116-31-9.74-65.66-11.18-96.28-11.24-23.28,0-46.66-4.92-70-6.14-13-.67-31.13,3.92-43.39-.44,17.1-6.15,36.49-9.8,54.2-15.3,18.63-5.8,38.75-7.14,54.66-19,29-21.65,49.82-51.51,85-64C28.24,607,84.37,630.82,134,642.54c58.5,13.83,115.87,36.6,173.48,53.84-29.56,1.79-64-7.7-94.36-11.19C171,680.34,129.39,677.1,87.24,668c-31.63-6.87-54.62-9.51-83,3.68-19.09,8.88-51.32,11.06-64.82,27.85,68.48-30.78,158,12.38,214,75.27C168.89,792.12,183,811.33,199,828.14c18.52,19.47,40.57,36.42,61.63,52,24.22,17.89,50.88,29.3,74.9,47.58,7.6,5.79,15.47,11.67,23.79,15.74,6.09,3,16.55,3.44,20,9.58-23.94,17.68-56.76,8.57-85.38,1.75" transform="translate(826.25 79.36)"/><path class="cls-3" d="M-576.49,1064.67c-9.75-3.11-18.85-9.1-28.77-11.18,6.35,29.75,39.62,47.71,63.28,56.16,27.33,9.76,55.45,11.19,82.65,11.28,46.51.14,93.29-1.87,140.47,11.21,35.55,9.85,68.37,33.79,100.57,55,30.19,19.93,61.31,34.12,92.13,51.89-11.85,5.09-31.26-2.93-44.38-4.37a484.74,484.74,0,0,1-54-8.67c-21.12-4.69-41.79-5-62.84-9.88-19.33-4.51-38.14-9.79-57.31-8.86-12.7.62-25.16,2.37-38,2.59-17,.29-33.77-2.79-50.55-.38-29.2,4.21-63.6-4.87-91.39,3.76,39.2,30,86.13,46.51,128.05,69.56,27.56,15.16,53.78,34.31,81.52,48.25,11.86,6,22.93,14,34.55,20,7.63,4,16.17,4.51,24.1,7.1,18.12,5.92,34.7,19.63,53.57,21.33-13.74,6.94-31.31,4.88-46.95,6-20.35,1.38-41,1.65-61.7-.76-24.76-2.88-48.57,2.18-73.05,2.23-19,0-39.21-7.54-57.89-7.21,32.8,26,81.47,25.63,116.5,24.19,28-1.15,53.3,7.47,80.61,18.62,40.76,16.65,83.32,27.1,124.62,33.36-5.68-14.27-15.25-25.69-24.92-37.21-12.4-14.77-22.53-29.51-33.62-45.31-17.35-24.71-52.38-46.29-77.64-57.17A554.31,554.31,0,0,1-334,1275.62c-18.85-11.8-43.9-28.56-64.15-28.51,46.9,13.55,90.93,27.71,137,21,34.27-5,66.49-4.81,102,.22,35.94,5.1,72.43,12.77,108.64,18.75,39.84,6.58,77.94,25.23,118.06,28.45C45.34,1304.75,24.2,1290,2.19,1280.05c-20.69-9.35-36-27.25-48.84-47.83-13.49-21.7-26.53-25.58-47.28-34.17-40.66-16.84-79.28-41.53-117.28-66.37-55.19-36.07-101.63-89.29-165.37-95.07-29.27-2.66-54,11.17-80.61,18.5-28.61,7.89-56.06,18.24-87.16,15.87a142.31,142.31,0,0,1-32.14-6.31" transform="translate(826.25 79.36)"/><path class="cls-3" d="M-24.86,383.34C-52,381.2-77.45,376.82-102.69,360c-23.38-15.57-43.76-35.22-68-49.43-40.29-23.67-89.77-36.57-132-34.94-34.41,1.33-71.12-4-106.14-12.91-76.84-19.6-153-54.16-228.84-82.35-33.79-12.56-66-28.43-99.36-43.26-26.39-11.71-62.09-30.65-89.25-28.88,26.42-5,57.66,6.07,85.12,5.25,12.31-.37,24.37-4.26,36.73-3.88,13.92.44,28.91,4.36,42.89,7.66,27.41,6.46,53.34,21.46,80.39,30.1,29.2,9.33,58.08,23.11,87.74,28.25,30.42,5.28,61.48,14,91.9,17.37,27.36,3.06,52.61,13.12,79.71,19,39.55,8.6,79.7,8.23,119.16,16.52-41.12-11.7-81.13-20.44-119.22-47.46-22.72-16.11-45.89-30.6-68-48-21.23-16.64-42.36-31.45-66-41.73-40.46-17.56-83.13-28.14-123-48.1-41.3-20.66-80-40.88-123.35-53,13.19-6.71,34.24-4.71,49.39-4.1,26.93,1.09,54.38,6.45,81.44,9.47C-542.69-1.14-517,11-488.85,21.49c20.66,7.72,40.21,14.27,60.56,24,27.47,13.17,55.36,28.27,83.55,37.74C-319.1,91.86-292,95.07-266,101.48c21.91,5.39,43.44,16.16,65,24.5,28,10.85,55.29,15.56,83.58,21.81,23.22,5.14,44.14,10,67.24,17.56,16.24,5.34,33.78,7.31,49.92,9.71-10-10.9-28.87-20.4-41.33-29.16-22.43-15.78-45.49-29-69-42.13-37.24-20.8-74-45.08-109.93-69.39-32.31-21.86-67.58-40-102.11-54.89-21.25-9.16-42.73-17.41-64.06-26.2-24.39-10.06-53.06-16.44-76-30.93,28.31-7.69,68.39,12.51,97.65,18.4,28.82,5.81,52.8,16.44,80.82,27.8C-262-22.4-241-9.48-218.58-.2c24.29,10,48.91,19.83,72.65,32.2,44.46,23.2,89.82,59.85,128.54,94,15.61,13.78,28.58,28.9,43.47,43.41,12.62,12.28,29.32,33.68,44.43,40.18-11.18,7.61-30.59,7.91-44.12,9.65-23.51,3-47.65-3.74-71.63-8.68a676,676,0,0,1-130.12-41.34c-28.3-12.23-58.07-24.76-87.1-31.87-12.56-3.08-24.87-5.74-37.45-7.59-8.43-1.24-15.35-6.63-23.67-8.55-13.56-3.11-28.93-4.52-42-10.07,5.17,7.79,19,11.59,26.88,15,8.13,3.48,16.24,7.79,24.17,11.91,24.1,12.51,50.33,17.67,73.79,31.89,25,15.16,50.62,29,76.45,41.61,23.71,11.56,47.52,16.89,71.51,25.77,9.41,3.47,18.92,10.29,28.49,11.46-16.57,6.31-35.7,6.62-54,5.22-17-1.31-32.27,3.49-49.45,2.5-15.22-.88-29.59,1.2-44.46,1.89,15,4.93,30.68,6,45.36,11.54,40.09,15.05,80.45,35.93,121.31,45.27C-6.3,324.14,32,326.65,70.45,327c28.12.27,54.49-14,81.29-19.39-7.76,18.57-18.92,35.3-30.26,51.61C114,370,105.15,376,94.59,382.9c-7.63,5-16.65,3.32-25.65,2.65s-14.33,1.59-22.53,3c-21.82,3.69-48.6-3.4-71.27-5.19" transform="translate(826.25 79.36)"/><path class="cls-3" d="M45.71,1210.91c-43.11-33.15-89.68-60.06-135.43-87-57.24-33.73-112.36-72.4-170.33-104-52.52-28.6-110.17-44.42-163.52-68.9,28-2.11,59.93,2.18,88.85,6.51,33.18,5,64.4,1.9,97.11,16.85,51.4,23.51,101.25,61.63,150.92,91,42.31,25,90.72,42,135,59.38a693.32,693.32,0,0,0,104.06,32A466.14,466.14,0,0,1,80.44,1117c-22.08-14.69-40-36-60.43-53.49-21-18-40.66-37.28-63.89-51.68-24.81-15.39-51.92-28.07-75.6-44.55,27.55-5.84,59.68,9.73,88.07,12.78,24.39,2.61,49.33,3,74.15,7,40.11,6.42,80.72,21.66,120.38,33.88,39.93,12.31,83.14,23.9,123.33,27.65,48.52,4.54,106.7,34.35,151.78,16.66-4.91,8.78-24.4,7.86-33.86,11.39-18.58,6.92-33.28,16.43-53.62,19-21.18,2.66-41.85,5-62.69,9.08-18.11,3.56-33.49-.91-52.22-4.39-33.25-6.17-65.93-11.49-99.1-19.74-29.14-7.26-67.78-15.22-94.69-32.26,12.21,11.13,33.47,17.55,48.4,25.35,16.6,8.66,30.58,16.28,45.71,27.86,23.93,18.32,47.36,42.66,72.59,57,21.05,11.92,37.22,13,58.73,18.2,16.61,4,39.61,4.15,55.31,11.57-22,9.4-50.23,13.39-75.25,11.8-27.17-1.74-53.82,2.55-81.13-.4-25.91-2.79-53.7-14.88-78.67-24.82-30.71-12.23-59.88-23.75-91-34,22.49,15.26,46.47,22,68.38,41,21.43,18.58,42,36.53,65.72,50.39,11.91,7,24.32,12,36.33,18.47,8.55,4.61,17.4,5,26.2,7.69-6.21,3.86-13.31,3.47-20.36,5-6.76,1.45-13.27,3.25-20.33,3.57a62.66,62.66,0,0,1-21.85-2.5c-29.56-9.55-59.24-33.65-85.1-53.54" transform="translate(826.25 79.36)"/><path class="cls-3" d="M84.56,556.12c-34.09-18-68.69-35-101.55-56.53C-36.33,487-56.92,473.32-77.13,463.14c-15.65-7.89-32.11-13.19-47.76-21.34-29.87-15.57-64.39-24.21-92.9-42C-181.11,408.55-144,421.51-107,430c33.5,7.65,68.44,18.88,101.64,30,19.09,6.39,38.55,18.72,56.86,28.47,20.76,11,42.68,19.08,62.86,31.06C145.83,538.14,178,550.26,211.26,560c-7.45,9-16.33,13.85-27.38,17.29-29.14,9.09-70.38-6-99.32-21.21" transform="translate(826.25 79.36)"/><path class="cls-3" d="M199.26,774.33c-10.08-10.47-21.43-19.73-32.17-29.53C156,734.69,139.33,727.31,130,715.6c18.74,15.92,45.69,23,66.06,34.93,13,7.6,24.36,19.76,37.35,27.5,14.71,8.77,28.71,16.52,43.22,26.18,8.73,5.82,17.63,9.29,26.23,15.87,5.81,4.45,16.8,9.78,21.38,15,11.08,12.67-3.88,20.07-12.85,23.17-18.46,6.39-34.2-8.71-47.13-23.9-19.52-22.91-44.34-38.57-65-60" transform="translate(826.25 79.36)"/><path class="cls-3" d="M157.85,969.77c9.41,4.9,18.61,10.66,28.2,15.15,22.12,10.38,52.59,12.26,71.42.72-15.46-8.84-35.51-11.39-52-18.19-11.58-4.78-22.65-10.71-34.29-15.11-21.31-8.05-41.46-19.9-63.07-27.05-16-5.27-29.3-2.52-44.89-.55-17.28,2.19-52.12,6.8-61.91,22.13,1.75-2.74,47.83,9.17,53.84,10,16.05,2.12,32.64,5.36,48.39,4.26,11.13-.78,20.83-2.79,32.43,0a95.5,95.5,0,0,1,21.85,8.69" transform="translate(826.25 79.36)"/><path class="cls-3" d="M-119.1,1362.21c-14.08-12.29-30.88-22.13-46.21-31.85-11-7-26.92-19.48-38.94-21.32,9-5.08,27.6,6.41,37.63,9.32,15.43,4.47,30.12,6.07,45.37,12.87,29,12.93,58,19.19,86.88,31.76,17,7.41,46.44,20.54,47,45.58.68,32.91-46.38,22.47-66,16-13-4.29-18.07-11.2-26.86-22.37-11.35-14.41-25.34-28.19-38.83-40" transform="translate(826.25 79.36)"/></g></svg>