<?xml version="1.0" encoding="utf-8"?>
<!-- Generator: Adobe Illustrator 23.0.1, SVG Export Plug-In . SVG Version: 6.00 Build 0)  -->
<svg version="1.1" id="Capa_1" xmlns="http://www.w3.org/2000/svg" xmlns:xlink="http://www.w3.org/1999/xlink" x="0px" y="0px"
	 viewBox="0 0 436.5 961.9" style="enable-background:new 0 0 436.5 961.9;" xml:space="preserve">
<style type="text/css">
	.st0{clip-path:url(#SVGID_2_);}
	.st1{fill:#C80186;}
</style>
<title>fuegorosa</title>
<g>
	<g id="Capa_1-2">
		<g>
			<defs>
				<rect id="SVGID_1_" y="-158.1" width="470" height="1208"/>
			</defs>
			<clipPath id="SVGID_2_">
				<use xlink:href="#SVGID_1_"  style="overflow:visible;"/>
			</clipPath>
			<g class="st0">
				<path class="st1" d="M72,222.9c-22.3-12.2-46.1-21.4-70.8-27.3v63.5c33.9,11.9,67.4,27.8,100.9,39.2
					c-30.7,11.2-66.4,9.6-100.9,10.4v48.4c47.6-20.6,99.3-25.9,156.4-15.6c35.3,6.6,71.4,7.9,107.1,3.8c29.3-3.2,63.2-5.6,79.9-30.3
					c-5.3-4.7-15.3-1.6-22-2.3c-9.2-1-18.6-3.9-27.7-6.8c-28.8-9.2-57.7-11-86.5-19.7c-25.1-7.6-51.5-16.1-75.5-28.3
					C112.1,247.5,92.4,234.1,72,222.9z"/>
				<path class="st1" d="M1.2,140.2c32.8-5.9,64.6-14.2,96.9-21.7c29.8-6.9,65.4-9.5,92.6-21.1c-60.1,3.1-121.7,0.9-181.5,7.5
					c-2.7,0.3-5.4,0.6-8.1,0.8L1.2,140.2z"/>
				<path class="st1" d="M1.2,782.4c16.9-2.8,33.8-5.5,50.5-8.5c39.8-7.2,81.9-2.4,120.8-12.8c-24.5-2.7-49.4-9.5-73.4-11.5
					C76.5,747.8,56,736.1,37,721c-13.3-10.6-23.7-13.8-35.8-15.1L1.2,782.4z"/>
				<path class="st1" d="M6.4,929.9c-1.8-1-3.5-2.1-5.2-3.1v36.4c13.9-1.8,27.7-4,41.1-6.6C32.2,945.1,19.4,937.5,6.4,929.9z"/>
				<path class="st1" d="M1.2,523.2c14,5.2,27.9,11.1,42,16.5c25.1,9.7,49.1,23.7,74.9,30.1c26.6,6.8,53.7,11.2,81.1,13.3
					c-36.1,4.4-72.4,6-108.8,4.8c-28.9-0.9-59.1-1.2-89.2-3.4v56.9c38.7,7.7,77.5,16.2,115.7,28.6c31,10.1,67.1,22.8,98.1,21.9
					c7.4-0.4,14.6-2.1,21.4-5c6.5-2.7,12.1-6.5,17.9-10.2c6.1-3.8,13-5.8,17.5-11.5c-9.2,0.4-17.7,3-27.3,1.5
					c-13.5-2.1-26.9-2.6-40.4-5.2c-27-5.1-52.4-15.1-78.8-25.4c-27-10.5-51.9-8.8-78.2-15.7c32.8-0.8,64.1,0.3,97.1,1.5
					c26.9,1,57.1,3,82.4-3c26.7-6.4,50.4-19.4,76.6-26.8c24.1-6.9,49.4-20.1,66.9-36.4c-17.3-1.7-39,5.9-56,7.6
					c-22,2.3-37.6,6.7-61.4,2.6c-28.6-5-58.8-20.1-87.5-29.3c-18.1-5.8-33.9-8.3-52.4-10.9c-16.7-2.3-38.9-1.3-54.1-7.6
					c31.1,7,70.1,1.6,100-1.4c34-3.3,66.6-9.3,100-14.7c18.8-3,34.8-4,50.7-13.4c18.3-10.8,37-20,56-29.6
					c18.3-9.2,29-23.1,44.1-35.9c7.7-6.5,26.4-12.2,28.1-22.1c-36.5,31.8-101.3,23.2-148.6,35.2c-39.1,10-83.7,13.5-125.5,15.3
					c-41.5,1.8-84.8,1.1-124.8,8.5c-12.8,2.4-25.3,5.7-37.8,9.1L1.2,523.2z"/>
				<path class="st1" d="M1.2,40.1c12.7-2.4,24.3-6.6,33.2-13.3c9.3-7,16-14.5,20-25.5C36.7,2.3,19,2.5,1.2,1.7L1.2,40.1z"/>
				<path class="st1" d="M115,207.2c-13-6.5-26.8-11.4-40.2-17c-13.8-5.8-32-7.2-44.7-15.1c23,8.7,50.8,6.3,74,10.7
					c14.8,2.8,29.6,10.4,44.4,13.4c16.8,3.3,32.6,5.9,49.5,10.2c10.2,2.5,19.7,2.8,30,6.1c7,2.3,19.1,3.6,25.2,7
					c14.7,8.2,3.1,20.2-4.3,26.1c-15.2,12.2-35.1,3.3-52.4-6.7C170.3,226.9,141.7,220.5,115,207.2"/>
				<path class="st1" d="M1.2,432.5c14.7-2.2,35.5-4.2,39.3-5c15.8-3.4,32.5-5.9,47-12.2c10.2-4.5,18.7-9.6,30.5-10.9
					c7.8-0.7,15.7-0.4,23.5,0.9c10.5,1.5,21.1,3.8,31.6,4.8c24.3,2.4,53.6-6.1,67.5-23.3c-17.5-3.1-37.3,1.2-55.1,0.3
					c-12.5-0.6-24.9-2.5-37.4-2.7c-22.8-0.4-45.7-4.8-68.5-4.3c-16.8,0.4-28.5,7.5-42.5,14.5c-9.5,4.8-24.7,12.6-36.2,22L1.2,432.5z
					"/>
				<path class="st1" d="M1.2,863.9c3.8,1.2,7.5,2.5,11.2,3.9c16.7,6.6,34.5,14.8,50,24.6c12,7.6,19.1,12.4,32.8,12.1
					c20.7-0.5,68.5-6.4,56.8-37.2c-8.9-23.4-41-25.9-59.5-27.2c-31-2.1-60.1,1.6-91.3-0.7L1.2,863.9z"/>
			</g>
		</g>
	</g>
</g>
</svg>
